<svg xmlns="http://www.w3.org/2000/svg" xmlns:xlink="http://www.w3.org/1999/xlink" width="200" zoomAndPan="magnify" viewBox="0 0 150 149.999998" height="200" preserveAspectRatio="xMidYMid meet" version="1.0"><defs><clipPath id="d35f6a1e34"><path d="M 1 11 L 149 11 L 149 132 L 1 132 Z M 1 11 " clip-rule="nonzero"/></clipPath><clipPath id="0044f69feb"><path d="M -21.046875 29.480469 L 125.675781 -8.257812 L 152.765625 97.0625 L 6.039062 134.800781 Z M -21.046875 29.480469 " clip-rule="nonzero"/></clipPath><clipPath id="c4464e8858"><path d="M -21.046875 29.480469 L 125.675781 -8.257812 L 152.765625 97.0625 L 6.039062 134.800781 Z M -21.046875 29.480469 " clip-rule="nonzero"/></clipPath></defs><g clip-path="url(#d35f6a1e34)"><g clip-path="url(#0044f69feb)"><g clip-path="url(#c4464e8858)"><path fill="#313131" d="M 147.105469 77.03125 C 145.183594 71.277344 139.738281 66.960938 133.71875 66.335938 C 112.585938 63.929688 91.476562 61.363281 70.339844 59.046875 C 69.628906 56.304688 68.042969 52.851562 70.445312 50.484375 C 73.035156 48.316406 75.515625 45.90625 77.039062 42.847656 C 80.789062 35.929688 80.289062 26.964844 75.738281 20.535156 C 70.296875 12.328125 58.890625 8.925781 49.839844 12.832031 C 39.796875 16.714844 33.839844 28.976562 37.546875 39.179688 C 39.191406 42.652344 44.574219 43.050781 46.683594 39.832031 C 48.867188 37.117188 46.550781 33.746094 47.363281 30.722656 C 48.257812 25.261719 53.746094 20.996094 59.289062 21.773438 C 64.605469 22.253906 68.9375 27.179688 68.902344 32.496094 C 68.976562 35.984375 67.183594 39.367188 64.363281 41.398438 C 60.660156 44.234375 58.382812 48.8125 58.339844 53.46875 C 58.226562 56.292969 59.265625 58.960938 59.804688 61.695312 C 42.417969 73.828125 25.238281 86.277344 7.925781 98.535156 C 2.871094 101.988281 0.136719 108.507812 1.28125 114.535156 C 2.070312 118.140625 2.832031 121.9375 5.171875 124.90625 C 8.949219 130.003906 15.90625 132.472656 22.042969 130.808594 L 69.625 118.570312 L 66.945312 108.144531 C 51.058594 112.230469 35.179688 116.3125 19.292969 120.386719 C 16.570312 121.140625 13.492188 119.285156 12.863281 116.535156 C 12.34375 114.441406 11.328125 112.1875 12.15625 110.035156 C 12.734375 108.261719 14.410156 107.269531 15.84375 106.246094 C 32.535156 94.402344 49.1875 82.480469 65.890625 70.644531 C 66.996094 69.820312 68.414062 69.601562 69.769531 69.78125 C 90.59375 72.207031 111.417969 74.609375 132.246094 77.015625 C 134.5 77.167969 136.558594 78.820312 137.078125 81.039062 C 137.59375 83.128906 138.609375 85.367188 137.785156 87.519531 C 137.140625 89.40625 135.363281 90.703125 133.433594 91.046875 C 117.792969 95.054688 102.148438 99.078125 86.515625 103.101562 L 89.195312 113.53125 L 136.761719 101.300781 C 142.953125 99.796875 147.859375 94.28125 148.707031 87.980469 C 149.316406 84.253906 148.167969 80.5625 147.105469 77.03125 Z M 147.105469 77.03125 " fill-opacity="1" fill-rule="nonzero"/></g></g></g></svg>