<svg xmlns="http://www.w3.org/2000/svg" xmlns:xlink="http://www.w3.org/1999/xlink" width="200" zoomAndPan="magnify" viewBox="0 0 150 37.5" height="50" preserveAspectRatio="xMidYMid meet" version="1.0"><defs><g/></defs><g fill="#d47c08" fill-opacity="1"><g transform="translate(2.895434, 22.931321)"><g><path d="M 12.40625 -16.8125 L 12.40625 -15.265625 C 12.40625 -15.023438 12.375 -14.847656 12.3125 -14.734375 C 12.25 -14.617188 12.109375 -14.5625 11.890625 -14.5625 L 8.921875 -14.5625 C 8.734375 -14.5625 8.601562 -14.609375 8.53125 -14.703125 C 8.46875 -14.804688 8.4375 -14.972656 8.4375 -15.203125 L 8.4375 -16.6875 C 8.4375 -17.007812 8.367188 -17.316406 8.234375 -17.609375 C 8.109375 -17.898438 7.921875 -18.140625 7.671875 -18.328125 C 7.429688 -18.515625 7.132812 -18.609375 6.78125 -18.609375 C 6.257812 -18.609375 5.835938 -18.414062 5.515625 -18.03125 C 5.203125 -17.65625 5.046875 -17.21875 5.046875 -16.71875 L 5.046875 -5.421875 C 5.046875 -5.097656 5.113281 -4.785156 5.25 -4.484375 C 5.394531 -4.191406 5.597656 -3.953125 5.859375 -3.765625 C 6.117188 -3.585938 6.425781 -3.5 6.78125 -3.5 C 7.375 -3.5 7.8125 -3.691406 8.09375 -4.078125 C 8.375 -4.472656 8.515625 -4.921875 8.515625 -5.421875 L 8.515625 -7.328125 C 8.515625 -7.578125 8.546875 -7.742188 8.609375 -7.828125 C 8.679688 -7.910156 8.804688 -7.953125 8.984375 -7.953125 L 11.96875 -7.953125 C 12.15625 -7.953125 12.289062 -7.914062 12.375 -7.84375 C 12.457031 -7.769531 12.5 -7.609375 12.5 -7.359375 L 12.5 -5.1875 C 12.5 -4.039062 12.238281 -3.050781 11.71875 -2.21875 C 11.207031 -1.382812 10.515625 -0.75 9.640625 -0.3125 C 8.773438 0.125 7.8125 0.34375 6.75 0.34375 C 5.957031 0.34375 5.203125 0.21875 4.484375 -0.03125 C 3.765625 -0.28125 3.125 -0.644531 2.5625 -1.125 C 2.007812 -1.601562 1.578125 -2.179688 1.265625 -2.859375 C 0.953125 -3.546875 0.796875 -4.320312 0.796875 -5.1875 L 0.796875 -16.890625 C 0.796875 -17.679688 0.941406 -18.414062 1.234375 -19.09375 C 1.523438 -19.769531 1.9375 -20.359375 2.46875 -20.859375 C 3.007812 -21.359375 3.640625 -21.742188 4.359375 -22.015625 C 5.078125 -22.296875 5.875 -22.4375 6.75 -22.4375 C 7.71875 -22.4375 8.554688 -22.273438 9.265625 -21.953125 C 9.984375 -21.640625 10.570312 -21.210938 11.03125 -20.671875 C 11.5 -20.140625 11.84375 -19.539062 12.0625 -18.875 C 12.289062 -18.207031 12.40625 -17.519531 12.40625 -16.8125 Z M 12.40625 -16.8125 "/></g></g></g><g fill="#d47c08" fill-opacity="1"><g transform="translate(16.005729, 22.931321)"><g><path d="M 10.796875 0 L 1.6875 0 C 1.332031 0 1.15625 -0.203125 1.15625 -0.609375 L 1.15625 -21.484375 C 1.15625 -21.890625 1.328125 -22.09375 1.671875 -22.09375 L 4.875 -22.09375 C 5.21875 -22.09375 5.390625 -21.890625 5.390625 -21.484375 L 5.390625 -3.84375 L 10.796875 -3.84375 C 11.085938 -3.84375 11.234375 -3.664062 11.234375 -3.3125 L 11.234375 -0.578125 C 11.234375 -0.191406 11.085938 0 10.796875 0 Z M 10.796875 0 "/></g></g></g><g fill="#d47c08" fill-opacity="1"><g transform="translate(27.598999, 22.931321)"><g><path d="M 12.734375 -16.890625 L 12.734375 -5.1875 C 12.734375 -4.320312 12.570312 -3.546875 12.25 -2.859375 C 11.925781 -2.179688 11.488281 -1.601562 10.9375 -1.125 C 10.382812 -0.644531 9.742188 -0.28125 9.015625 -0.03125 C 8.296875 0.21875 7.535156 0.34375 6.734375 0.34375 C 5.941406 0.34375 5.1875 0.210938 4.46875 -0.046875 C 3.757812 -0.304688 3.125 -0.675781 2.5625 -1.15625 C 2.007812 -1.632812 1.578125 -2.210938 1.265625 -2.890625 C 0.953125 -3.578125 0.796875 -4.34375 0.796875 -5.1875 L 0.796875 -16.890625 C 0.796875 -17.753906 0.953125 -18.53125 1.265625 -19.21875 C 1.578125 -19.90625 2.007812 -20.488281 2.5625 -20.96875 C 3.125 -21.445312 3.757812 -21.8125 4.46875 -22.0625 C 5.1875 -22.3125 5.941406 -22.4375 6.734375 -22.4375 C 7.535156 -22.4375 8.296875 -22.3125 9.015625 -22.0625 C 9.742188 -21.8125 10.382812 -21.445312 10.9375 -20.96875 C 11.488281 -20.488281 11.925781 -19.90625 12.25 -19.21875 C 12.570312 -18.539062 12.734375 -17.765625 12.734375 -16.890625 Z M 6.765625 -18.609375 C 6.222656 -18.609375 5.800781 -18.410156 5.5 -18.015625 C 5.195312 -17.617188 5.046875 -17.164062 5.046875 -16.65625 L 5.046875 -5.40625 C 5.046875 -4.90625 5.191406 -4.460938 5.484375 -4.078125 C 5.773438 -3.691406 6.191406 -3.5 6.734375 -3.5 C 7.285156 -3.5 7.710938 -3.675781 8.015625 -4.03125 C 8.328125 -4.382812 8.484375 -4.8125 8.484375 -5.3125 L 8.484375 -16.65625 C 8.484375 -17.164062 8.328125 -17.617188 8.015625 -18.015625 C 7.710938 -18.410156 7.296875 -18.609375 6.765625 -18.609375 Z M 6.765625 -18.609375 "/></g></g></g><g fill="#d47c08" fill-opacity="1"><g transform="translate(41.12448, 22.931321)"><g><path d="M 8.5 -5.671875 L 8.5 -7.609375 C 8.5 -8.296875 8.3125 -8.800781 7.9375 -9.125 C 7.570312 -9.445312 7.148438 -9.609375 6.671875 -9.609375 L 5.09375 -9.609375 L 5.09375 -3.84375 L 6.75 -3.84375 C 7.132812 -3.84375 7.453125 -3.9375 7.703125 -4.125 C 7.960938 -4.3125 8.160156 -4.539062 8.296875 -4.8125 C 8.429688 -5.09375 8.5 -5.378906 8.5 -5.671875 Z M 8.34375 -14.75 L 8.34375 -16.3125 C 8.34375 -16.976562 8.171875 -17.460938 7.828125 -17.765625 C 7.492188 -18.066406 7.066406 -18.21875 6.546875 -18.21875 L 5.09375 -18.21875 L 5.09375 -13.046875 L 6.5 -13.046875 C 6.726562 -13.046875 6.988281 -13.09375 7.28125 -13.1875 C 7.570312 -13.28125 7.820312 -13.445312 8.03125 -13.6875 C 8.238281 -13.9375 8.34375 -14.289062 8.34375 -14.75 Z M 12.390625 -16.5625 L 12.390625 -14.984375 C 12.390625 -14.378906 12.265625 -13.828125 12.015625 -13.328125 C 11.765625 -12.828125 11.457031 -12.410156 11.09375 -12.078125 C 10.738281 -11.753906 10.390625 -11.554688 10.046875 -11.484375 C 10.265625 -11.421875 10.523438 -11.289062 10.828125 -11.09375 C 11.140625 -10.90625 11.441406 -10.640625 11.734375 -10.296875 C 12.035156 -9.953125 12.28125 -9.523438 12.46875 -9.015625 C 12.664062 -8.515625 12.765625 -7.921875 12.765625 -7.234375 L 12.765625 -5.25 C 12.765625 -4.476562 12.609375 -3.769531 12.296875 -3.125 C 11.992188 -2.476562 11.582031 -1.921875 11.0625 -1.453125 C 10.550781 -0.992188 9.96875 -0.632812 9.3125 -0.375 C 8.65625 -0.125 7.972656 0 7.265625 0 L 1.6875 0 C 1.332031 0 1.15625 -0.203125 1.15625 -0.609375 L 1.15625 -21.484375 C 1.15625 -21.890625 1.332031 -22.09375 1.6875 -22.09375 L 6.765625 -22.09375 C 7.890625 -22.09375 8.867188 -21.847656 9.703125 -21.359375 C 10.546875 -20.878906 11.203125 -20.222656 11.671875 -19.390625 C 12.148438 -18.566406 12.390625 -17.625 12.390625 -16.5625 Z M 12.390625 -16.5625 "/></g></g></g><g fill="#d47c08" fill-opacity="1"><g transform="translate(54.234776, 22.931321)"><g><path d="M 8.5 -5.671875 L 8.5 -7.609375 C 8.5 -8.296875 8.3125 -8.800781 7.9375 -9.125 C 7.570312 -9.445312 7.148438 -9.609375 6.671875 -9.609375 L 5.09375 -9.609375 L 5.09375 -3.84375 L 6.75 -3.84375 C 7.132812 -3.84375 7.453125 -3.9375 7.703125 -4.125 C 7.960938 -4.3125 8.160156 -4.539062 8.296875 -4.8125 C 8.429688 -5.09375 8.5 -5.378906 8.5 -5.671875 Z M 8.34375 -14.75 L 8.34375 -16.3125 C 8.34375 -16.976562 8.171875 -17.460938 7.828125 -17.765625 C 7.492188 -18.066406 7.066406 -18.21875 6.546875 -18.21875 L 5.09375 -18.21875 L 5.09375 -13.046875 L 6.5 -13.046875 C 6.726562 -13.046875 6.988281 -13.09375 7.28125 -13.1875 C 7.570312 -13.28125 7.820312 -13.445312 8.03125 -13.6875 C 8.238281 -13.9375 8.34375 -14.289062 8.34375 -14.75 Z M 12.390625 -16.5625 L 12.390625 -14.984375 C 12.390625 -14.378906 12.265625 -13.828125 12.015625 -13.328125 C 11.765625 -12.828125 11.457031 -12.410156 11.09375 -12.078125 C 10.738281 -11.753906 10.390625 -11.554688 10.046875 -11.484375 C 10.265625 -11.421875 10.523438 -11.289062 10.828125 -11.09375 C 11.140625 -10.90625 11.441406 -10.640625 11.734375 -10.296875 C 12.035156 -9.953125 12.28125 -9.523438 12.46875 -9.015625 C 12.664062 -8.515625 12.765625 -7.921875 12.765625 -7.234375 L 12.765625 -5.25 C 12.765625 -4.476562 12.609375 -3.769531 12.296875 -3.125 C 11.992188 -2.476562 11.582031 -1.921875 11.0625 -1.453125 C 10.550781 -0.992188 9.96875 -0.632812 9.3125 -0.375 C 8.65625 -0.125 7.972656 0 7.265625 0 L 1.6875 0 C 1.332031 0 1.15625 -0.203125 1.15625 -0.609375 L 1.15625 -21.484375 C 1.15625 -21.890625 1.332031 -22.09375 1.6875 -22.09375 L 6.765625 -22.09375 C 7.890625 -22.09375 8.867188 -21.847656 9.703125 -21.359375 C 10.546875 -20.878906 11.203125 -20.222656 11.671875 -19.390625 C 12.148438 -18.566406 12.390625 -17.625 12.390625 -16.5625 Z M 12.390625 -16.5625 "/></g></g></g><g fill="#d47c08" fill-opacity="1"><g transform="translate(67.345072, 22.931321)"><g><path d="M 5.390625 -3.84375 L 11.328125 -3.84375 C 11.453125 -3.84375 11.554688 -3.796875 11.640625 -3.703125 C 11.734375 -3.617188 11.78125 -3.488281 11.78125 -3.3125 L 11.78125 -0.5625 C 11.78125 -0.363281 11.734375 -0.21875 11.640625 -0.125 C 11.554688 -0.0390625 11.453125 0 11.328125 0 L 1.6875 0 C 1.332031 0 1.15625 -0.203125 1.15625 -0.609375 L 1.15625 -21.484375 C 1.15625 -21.890625 1.332031 -22.09375 1.6875 -22.09375 L 11.234375 -22.09375 C 11.535156 -22.09375 11.6875 -21.898438 11.6875 -21.515625 L 11.6875 -18.796875 C 11.6875 -18.410156 11.535156 -18.21875 11.234375 -18.21875 L 5.390625 -18.21875 L 5.390625 -13.09375 L 10.0625 -13.09375 C 10.195312 -13.09375 10.316406 -13.050781 10.421875 -12.96875 C 10.523438 -12.882812 10.578125 -12.738281 10.578125 -12.53125 L 10.578125 -9.796875 C 10.578125 -9.609375 10.523438 -9.472656 10.421875 -9.390625 C 10.328125 -9.304688 10.207031 -9.265625 10.0625 -9.265625 L 5.390625 -9.265625 Z M 5.390625 -3.84375 "/></g></g></g><g fill="#d47c08" fill-opacity="1"><g transform="translate(79.497246, 22.931321)"><g><path d="M 8.828125 -13.6875 L 8.828125 -16.328125 C 8.828125 -16.910156 8.660156 -17.367188 8.328125 -17.703125 C 7.992188 -18.046875 7.550781 -18.21875 7 -18.21875 L 5.390625 -18.21875 L 5.390625 -11.875 L 6.875 -11.875 C 7.519531 -11.875 8.003906 -12.039062 8.328125 -12.375 C 8.660156 -12.707031 8.828125 -13.144531 8.828125 -13.6875 Z M 12.375 -0.015625 L 9.4375 -0.015625 C 9.257812 -0.015625 9.09375 -0.078125 8.9375 -0.203125 C 8.78125 -0.328125 8.703125 -0.503906 8.703125 -0.734375 L 8.703125 -4.078125 C 8.703125 -5.617188 8.425781 -6.738281 7.875 -7.4375 C 7.320312 -8.132812 6.492188 -8.519531 5.390625 -8.59375 L 5.390625 -0.59375 C 5.390625 -0.195312 5.21875 0 4.875 0 L 1.671875 0 C 1.328125 0 1.15625 -0.195312 1.15625 -0.59375 L 1.15625 -21.484375 C 1.15625 -21.890625 1.332031 -22.09375 1.6875 -22.09375 L 7.328125 -22.09375 C 8.148438 -22.09375 8.910156 -21.941406 9.609375 -21.640625 C 10.316406 -21.347656 10.929688 -20.9375 11.453125 -20.40625 C 11.972656 -19.875 12.375 -19.257812 12.65625 -18.5625 C 12.945312 -17.875 13.09375 -17.128906 13.09375 -16.328125 L 13.09375 -14.046875 C 13.09375 -13.097656 12.875 -12.289062 12.4375 -11.625 C 12 -10.96875 11.457031 -10.421875 10.8125 -9.984375 C 11.53125 -9.367188 12.066406 -8.539062 12.421875 -7.5 C 12.773438 -6.46875 12.953125 -5.15625 12.953125 -3.5625 L 12.953125 -0.6875 C 12.953125 -0.550781 12.90625 -0.40625 12.8125 -0.25 C 12.726562 -0.09375 12.582031 -0.015625 12.375 -0.015625 Z M 12.375 -0.015625 "/></g></g></g><g fill="#313131" fill-opacity="1"><g transform="translate(94.045821, 22.931321)"><g><path d="M 12.40625 -16.8125 L 12.40625 -15.265625 C 12.40625 -15.023438 12.375 -14.847656 12.3125 -14.734375 C 12.25 -14.617188 12.109375 -14.5625 11.890625 -14.5625 L 8.921875 -14.5625 C 8.734375 -14.5625 8.601562 -14.609375 8.53125 -14.703125 C 8.46875 -14.804688 8.4375 -14.972656 8.4375 -15.203125 L 8.4375 -16.6875 C 8.4375 -17.007812 8.367188 -17.316406 8.234375 -17.609375 C 8.109375 -17.898438 7.921875 -18.140625 7.671875 -18.328125 C 7.429688 -18.515625 7.132812 -18.609375 6.78125 -18.609375 C 6.257812 -18.609375 5.835938 -18.414062 5.515625 -18.03125 C 5.203125 -17.65625 5.046875 -17.21875 5.046875 -16.71875 L 5.046875 -5.421875 C 5.046875 -5.097656 5.113281 -4.785156 5.25 -4.484375 C 5.394531 -4.191406 5.597656 -3.953125 5.859375 -3.765625 C 6.117188 -3.585938 6.425781 -3.5 6.78125 -3.5 C 7.375 -3.5 7.8125 -3.691406 8.09375 -4.078125 C 8.375 -4.472656 8.515625 -4.921875 8.515625 -5.421875 L 8.515625 -7.328125 C 8.515625 -7.578125 8.546875 -7.742188 8.609375 -7.828125 C 8.679688 -7.910156 8.804688 -7.953125 8.984375 -7.953125 L 11.96875 -7.953125 C 12.15625 -7.953125 12.289062 -7.914062 12.375 -7.84375 C 12.457031 -7.769531 12.5 -7.609375 12.5 -7.359375 L 12.5 -5.1875 C 12.5 -4.039062 12.238281 -3.050781 11.71875 -2.21875 C 11.207031 -1.382812 10.515625 -0.75 9.640625 -0.3125 C 8.773438 0.125 7.8125 0.34375 6.75 0.34375 C 5.957031 0.34375 5.203125 0.21875 4.484375 -0.03125 C 3.765625 -0.28125 3.125 -0.644531 2.5625 -1.125 C 2.007812 -1.601562 1.578125 -2.179688 1.265625 -2.859375 C 0.953125 -3.546875 0.796875 -4.320312 0.796875 -5.1875 L 0.796875 -16.890625 C 0.796875 -17.679688 0.941406 -18.414062 1.234375 -19.09375 C 1.523438 -19.769531 1.9375 -20.359375 2.46875 -20.859375 C 3.007812 -21.359375 3.640625 -21.742188 4.359375 -22.015625 C 5.078125 -22.296875 5.875 -22.4375 6.75 -22.4375 C 7.71875 -22.4375 8.554688 -22.273438 9.265625 -21.953125 C 9.984375 -21.640625 10.570312 -21.210938 11.03125 -20.671875 C 11.5 -20.140625 11.84375 -19.539062 12.0625 -18.875 C 12.289062 -18.207031 12.40625 -17.519531 12.40625 -16.8125 Z M 12.40625 -16.8125 "/></g></g></g><g fill="#313131" fill-opacity="1"><g transform="translate(107.156117, 22.931321)"><g><path d="M 12.734375 -16.890625 L 12.734375 -5.1875 C 12.734375 -4.320312 12.570312 -3.546875 12.25 -2.859375 C 11.925781 -2.179688 11.488281 -1.601562 10.9375 -1.125 C 10.382812 -0.644531 9.742188 -0.28125 9.015625 -0.03125 C 8.296875 0.21875 7.535156 0.34375 6.734375 0.34375 C 5.941406 0.34375 5.1875 0.210938 4.46875 -0.046875 C 3.757812 -0.304688 3.125 -0.675781 2.5625 -1.15625 C 2.007812 -1.632812 1.578125 -2.210938 1.265625 -2.890625 C 0.953125 -3.578125 0.796875 -4.34375 0.796875 -5.1875 L 0.796875 -16.890625 C 0.796875 -17.753906 0.953125 -18.53125 1.265625 -19.21875 C 1.578125 -19.90625 2.007812 -20.488281 2.5625 -20.96875 C 3.125 -21.445312 3.757812 -21.8125 4.46875 -22.0625 C 5.1875 -22.3125 5.941406 -22.4375 6.734375 -22.4375 C 7.535156 -22.4375 8.296875 -22.3125 9.015625 -22.0625 C 9.742188 -21.8125 10.382812 -21.445312 10.9375 -20.96875 C 11.488281 -20.488281 11.925781 -19.90625 12.25 -19.21875 C 12.570312 -18.539062 12.734375 -17.765625 12.734375 -16.890625 Z M 6.765625 -18.609375 C 6.222656 -18.609375 5.800781 -18.410156 5.5 -18.015625 C 5.195312 -17.617188 5.046875 -17.164062 5.046875 -16.65625 L 5.046875 -5.40625 C 5.046875 -4.90625 5.191406 -4.460938 5.484375 -4.078125 C 5.773438 -3.691406 6.191406 -3.5 6.734375 -3.5 C 7.285156 -3.5 7.710938 -3.675781 8.015625 -4.03125 C 8.328125 -4.382812 8.484375 -4.8125 8.484375 -5.3125 L 8.484375 -16.65625 C 8.484375 -17.164062 8.328125 -17.617188 8.015625 -18.015625 C 7.710938 -18.410156 7.296875 -18.609375 6.765625 -18.609375 Z M 6.765625 -18.609375 "/></g></g></g><g fill="#313131" fill-opacity="1"><g transform="translate(120.681598, 22.931321)"><g><path d="M 8.828125 -13.6875 L 8.828125 -16.328125 C 8.828125 -16.910156 8.660156 -17.367188 8.328125 -17.703125 C 7.992188 -18.046875 7.550781 -18.21875 7 -18.21875 L 5.390625 -18.21875 L 5.390625 -11.875 L 6.875 -11.875 C 7.519531 -11.875 8.003906 -12.039062 8.328125 -12.375 C 8.660156 -12.707031 8.828125 -13.144531 8.828125 -13.6875 Z M 12.375 -0.015625 L 9.4375 -0.015625 C 9.257812 -0.015625 9.09375 -0.078125 8.9375 -0.203125 C 8.78125 -0.328125 8.703125 -0.503906 8.703125 -0.734375 L 8.703125 -4.078125 C 8.703125 -5.617188 8.425781 -6.738281 7.875 -7.4375 C 7.320312 -8.132812 6.492188 -8.519531 5.390625 -8.59375 L 5.390625 -0.59375 C 5.390625 -0.195312 5.21875 0 4.875 0 L 1.671875 0 C 1.328125 0 1.15625 -0.195312 1.15625 -0.59375 L 1.15625 -21.484375 C 1.15625 -21.890625 1.332031 -22.09375 1.6875 -22.09375 L 7.328125 -22.09375 C 8.148438 -22.09375 8.910156 -21.941406 9.609375 -21.640625 C 10.316406 -21.347656 10.929688 -20.9375 11.453125 -20.40625 C 11.972656 -19.875 12.375 -19.257812 12.65625 -18.5625 C 12.945312 -17.875 13.09375 -17.128906 13.09375 -16.328125 L 13.09375 -14.046875 C 13.09375 -13.097656 12.875 -12.289062 12.4375 -11.625 C 12 -10.96875 11.457031 -10.421875 10.8125 -9.984375 C 11.53125 -9.367188 12.066406 -8.539062 12.421875 -7.5 C 12.773438 -6.46875 12.953125 -5.15625 12.953125 -3.5625 L 12.953125 -0.6875 C 12.953125 -0.550781 12.90625 -0.40625 12.8125 -0.25 C 12.726562 -0.09375 12.582031 -0.015625 12.375 -0.015625 Z M 12.375 -0.015625 "/></g></g></g><g fill="#313131" fill-opacity="1"><g transform="translate(134.638235, 22.931321)"><g><path d="M 5.390625 -3.84375 L 11.328125 -3.84375 C 11.453125 -3.84375 11.554688 -3.796875 11.640625 -3.703125 C 11.734375 -3.617188 11.78125 -3.488281 11.78125 -3.3125 L 11.78125 -0.5625 C 11.78125 -0.363281 11.734375 -0.21875 11.640625 -0.125 C 11.554688 -0.0390625 11.453125 0 11.328125 0 L 1.6875 0 C 1.332031 0 1.15625 -0.203125 1.15625 -0.609375 L 1.15625 -21.484375 C 1.15625 -21.890625 1.332031 -22.09375 1.6875 -22.09375 L 11.234375 -22.09375 C 11.535156 -22.09375 11.6875 -21.898438 11.6875 -21.515625 L 11.6875 -18.796875 C 11.6875 -18.410156 11.535156 -18.21875 11.234375 -18.21875 L 5.390625 -18.21875 L 5.390625 -13.09375 L 10.0625 -13.09375 C 10.195312 -13.09375 10.316406 -13.050781 10.421875 -12.96875 C 10.523438 -12.882812 10.578125 -12.738281 10.578125 -12.53125 L 10.578125 -9.796875 C 10.578125 -9.609375 10.523438 -9.472656 10.421875 -9.390625 C 10.328125 -9.304688 10.207031 -9.265625 10.0625 -9.265625 L 5.390625 -9.265625 Z M 5.390625 -3.84375 "/></g></g></g><path stroke-linecap="butt" transform="matrix(0.805638, 0, 0, 0.805638, 93.651101, -10.099849)" fill="none" stroke-linejoin="miter" d="M 15.885687 20.124578 L 15.885687 22.049488 C 15.885687 22.350103 15.846897 22.573141 15.769319 22.713751 C 15.691741 22.849513 15.51719 22.922243 15.255363 22.922243 L 11.565548 22.922243 C 11.327965 22.922243 11.16796 22.85921 11.080684 22.733146 C 10.993409 22.607081 10.949771 22.403438 10.949771 22.127066 L 10.949771 20.284583 C 10.949771 19.886994 10.872193 19.5088 10.712188 19.145152 C 10.557031 18.781504 10.324297 18.480889 10.018832 18.253003 C 9.718217 18.020268 9.344871 17.9039 8.908494 17.9039 C 8.263625 17.9039 7.739972 18.141484 7.342383 18.606953 C 6.944795 19.077271 6.750849 19.625168 6.750849 20.245793 L 6.750849 34.258363 C 6.750849 34.670497 6.833276 35.058388 7.007827 35.431734 C 7.177529 35.80023 7.42481 36.095997 7.749669 36.323883 C 8.074528 36.546921 8.462419 36.658439 8.908494 36.658439 C 9.63579 36.658439 10.173989 36.416007 10.523091 35.926295 C 10.877042 35.436582 11.051593 34.878989 11.051593 34.258363 L 11.051593 31.901924 C 11.051593 31.596459 11.09523 31.392817 11.177657 31.286146 C 11.264933 31.179476 11.420089 31.126141 11.643127 31.126141 L 15.352336 31.126141 C 15.575374 31.126141 15.740227 31.174628 15.846897 31.266752 C 15.953568 31.358876 16.006903 31.55767 16.006903 31.863135 L 16.006903 34.558978 C 16.006903 35.984478 15.686892 37.211184 15.046872 38.243945 C 14.402003 39.276705 13.543794 40.067033 12.467395 40.61493 C 11.390997 41.162826 10.193383 41.43435 8.869705 41.43435 C 7.880582 41.43435 6.935097 41.279193 6.042948 40.96888 C 5.150798 40.658567 4.365318 40.207644 3.676811 39.611261 C 2.988305 39.019727 2.450106 38.292431 2.062214 37.443919 C 1.669475 36.590558 1.475529 35.625679 1.475529 34.558978 L 1.475529 20.027605 C 1.475529 19.048179 1.654929 18.141484 2.018577 17.29782 C 2.382225 16.459006 2.89618 15.73171 3.555595 15.111084 C 4.219859 14.490458 4.995641 14.005594 5.897488 13.661341 C 6.794487 13.317087 7.788458 13.147385 8.869705 13.147385 C 10.072167 13.147385 11.114625 13.346179 12.001926 13.743767 C 12.889227 14.136507 13.616523 14.665009 14.193511 15.329273 C 14.765651 15.988688 15.192331 16.735378 15.473552 17.569344 C 15.749925 18.398462 15.885687 19.251822 15.885687 20.124578 Z M 32.55531 20.027605 L 32.55531 34.558978 C 32.55531 35.625679 32.361365 36.590558 31.963776 37.443919 C 31.566188 38.292431 31.02314 39.019727 30.339482 39.611261 C 29.650975 40.207644 28.855798 40.658567 27.9588 40.96888 C 27.061801 41.279193 26.116317 41.43435 25.122345 41.43435 C 24.133223 41.43435 23.192587 41.274345 22.310134 40.949486 C 21.422833 40.624627 20.637354 40.168855 19.948847 39.572472 C 19.26034 38.976089 18.722141 38.253642 18.33425 37.400281 C 17.94151 36.551769 17.747564 35.601436 17.747564 34.558978 L 17.747564 20.027605 C 17.747564 18.956055 17.94151 17.996025 18.33425 17.142664 C 18.722141 16.289303 19.26034 15.566856 19.948847 14.970473 C 20.637354 14.374091 21.422833 13.923167 22.310134 13.612854 C 23.192587 13.302541 24.133223 13.147385 25.122345 13.147385 C 26.116317 13.147385 27.061801 13.302541 27.9588 13.612854 C 28.855798 13.923167 29.650975 14.374091 30.339482 14.970473 C 31.02314 15.566856 31.566188 16.284455 31.963776 17.132967 C 32.361365 17.97663 32.55531 18.941509 32.55531 20.027605 Z M 25.161135 17.9039 C 24.487174 17.9039 23.963521 18.151181 23.585327 18.636045 C 23.211981 19.125758 23.022884 19.6882 23.022884 20.323372 L 23.022884 34.277757 C 23.022884 34.898383 23.202284 35.451128 23.565932 35.935992 C 23.92958 36.416007 24.448385 36.658439 25.122345 36.658439 C 25.810852 36.658439 26.344203 36.435402 26.717548 35.994176 C 27.095742 35.55295 27.284839 35.019599 27.284839 34.398973 L 27.284839 20.323372 C 27.284839 19.6882 27.095742 19.125758 26.717548 18.636045 C 26.344203 18.151181 25.825398 17.9039 25.161135 17.9039 Z M 44.507208 24.008338 L 44.507208 20.72096 C 44.507208 20.00821 44.298716 19.436071 43.886582 19.014239 C 43.469599 18.592407 42.916854 18.379067 42.228347 18.379067 L 40.245253 18.379067 L 40.245253 26.24841 L 42.092585 26.24841 C 42.882913 26.24841 43.484145 26.044767 43.896279 25.637481 C 44.303565 25.225347 44.507208 24.682299 44.507208 24.008338 Z M 48.909773 40.978578 L 45.263595 40.978578 C 45.035709 40.978578 44.827218 40.905848 44.638121 40.750691 C 44.444175 40.600384 44.352051 40.377346 44.352051 40.086428 L 44.352051 35.945689 C 44.352051 34.030477 44.007798 32.638917 43.319291 31.77101 C 42.630784 30.907953 41.607721 30.427937 40.245253 30.335813 L 40.245253 40.265827 C 40.245253 40.75554 40.027064 40.997972 39.590687 40.997972 L 35.629348 40.997972 C 35.19297 40.997972 34.974782 40.75554 34.974782 40.265827 L 34.974782 14.335302 C 34.974782 13.821346 35.197819 13.564368 35.648743 13.564368 L 42.64533 13.564368 C 43.663544 13.564368 44.609029 13.748616 45.481784 14.117113 C 46.354539 14.490458 47.110927 15.004414 47.760645 15.663829 C 48.405514 16.323244 48.909773 17.08448 49.268572 17.94269 C 49.622523 18.805747 49.801922 19.726989 49.801922 20.72096 L 49.801922 23.552566 C 49.801922 24.730785 49.530399 25.734454 48.987351 26.558723 C 48.449152 27.382991 47.775191 28.06665 46.965468 28.609697 C 47.867315 29.361236 48.531579 30.384299 48.967956 31.674038 C 49.404334 32.958927 49.622523 34.597767 49.622523 36.580861 L 49.622523 40.14946 C 49.622523 40.319163 49.569188 40.503411 49.462518 40.692508 C 49.360696 40.886453 49.176448 40.978578 48.909773 40.978578 Z M 57.569443 36.222062 L 64.92483 36.222062 C 65.084835 36.222062 65.220597 36.280246 65.332116 36.391764 C 65.443635 36.503283 65.501818 36.672985 65.501818 36.896023 L 65.501818 40.304617 C 65.501818 40.5422 65.443635 40.716751 65.332116 40.833118 C 65.220597 40.944637 65.084835 40.997972 64.92483 40.997972 L 52.972933 40.997972 C 52.522009 40.997972 52.298972 40.750691 52.298972 40.246433 L 52.298972 14.335302 C 52.298972 13.821346 52.522009 13.564368 52.972933 13.564368 L 64.827857 13.564368 C 65.196354 13.564368 65.380602 13.8068 65.380602 14.296512 L 65.380602 17.666317 C 65.380602 18.141484 65.196354 18.379067 64.827857 18.379067 L 57.569443 18.379067 L 57.569443 24.745331 L 63.358719 24.745331 C 63.53327 24.745331 63.67873 24.798666 63.804794 24.900488 C 63.930859 25.007158 63.993891 25.186558 63.993891 25.438687 L 63.993891 28.827886 C 63.993891 29.065469 63.935708 29.24002 63.814492 29.341842 C 63.698124 29.448512 63.542968 29.501847 63.358719 29.501847 L 57.569443 29.501847 Z M 57.569443 36.222062 " stroke="#292929" stroke-width="0.329938" stroke-opacity="1" stroke-miterlimit="4"/><path stroke-linecap="butt" transform="matrix(0.801039, 0, 0, 0.801039, 0.986842, -9.860963)" fill="none" stroke-linejoin="miter" d="M 18.108164 20.127213 L 18.108164 22.048546 C 18.108164 22.350888 18.069153 22.575206 17.986252 22.711747 C 17.908229 22.853165 17.737552 22.921436 17.474222 22.921436 L 13.782727 22.921436 C 13.548656 22.921436 13.382856 22.858042 13.299956 22.731253 C 13.212179 22.604465 13.168291 22.404529 13.168291 22.12657 L 13.168291 20.283261 C 13.168291 19.888266 13.090267 19.5079 12.93422 19.142164 C 12.773296 18.781305 12.544101 18.48384 12.236883 18.249769 C 11.934542 18.020574 11.563929 17.903539 11.129922 17.903539 C 10.481351 17.903539 9.959567 18.13761 9.564573 18.610628 C 9.164701 19.07877 8.969642 19.624936 8.969642 20.244249 L 8.969642 34.25925 C 8.969642 34.668875 9.052542 35.058993 9.223219 35.429605 C 9.398772 35.800218 9.642596 36.097683 9.96932 36.322001 C 10.291168 36.546319 10.681286 36.658478 11.129922 36.658478 C 11.856518 36.658478 12.392931 36.414654 12.744037 35.927006 C 13.095144 35.434482 13.270697 34.878563 13.270697 34.25925 L 13.270697 31.899034 C 13.270697 31.596693 13.314585 31.39188 13.397485 31.284598 C 13.485262 31.182192 13.641309 31.128551 13.865627 31.128551 L 17.571752 31.128551 C 17.79607 31.128551 17.96187 31.172439 18.069153 31.265092 C 18.171559 31.357745 18.2252 31.557681 18.2252 31.860022 L 18.2252 34.556716 C 18.2252 35.985524 17.903352 37.214397 17.264533 38.243334 C 16.620838 39.277148 15.762578 40.067137 14.684876 40.613303 C 13.61205 41.159469 12.412436 41.437428 11.090911 41.437428 C 10.096109 41.437428 9.154948 41.281381 8.262553 40.969286 C 7.370157 40.662068 6.580167 40.208555 5.892584 39.613625 C 5.209877 39.018694 4.668587 38.292099 4.278469 37.443591 C 3.888351 36.590207 3.693291 35.629541 3.693291 34.556716 L 3.693291 20.024807 C 3.693291 19.049511 3.873721 18.13761 4.239457 17.298855 C 4.605193 16.460101 5.117223 15.728629 5.775548 15.109316 C 6.438749 14.490003 7.21411 14.007232 8.116258 13.661002 C 9.01353 13.319648 10.003456 13.148971 11.090911 13.148971 C 12.290525 13.148971 13.334091 13.34403 14.22161 13.743902 C 15.104253 14.138897 15.835725 14.665556 16.41115 15.328758 C 16.986574 15.987082 17.410828 16.733184 17.688787 17.567062 C 17.966746 18.40094 18.108164 19.254323 18.108164 20.127213 Z M 32.376743 40.998545 L 21.07794 40.998545 C 20.629304 40.998545 20.404986 40.749844 20.404986 40.247567 L 20.404986 14.338832 C 20.404986 13.821925 20.619551 13.563472 21.058434 13.563472 L 25.023012 13.563472 C 25.457019 13.563472 25.67646 13.821925 25.67646 14.338832 L 25.67646 36.224471 L 32.376743 36.224471 C 32.747355 36.224471 32.932661 36.44879 32.932661 36.897426 L 32.932661 40.286579 C 32.932661 40.764474 32.747355 40.998545 32.376743 40.998545 Z M 49.166461 20.024807 L 49.166461 34.556716 C 49.166461 35.629541 48.966526 36.590207 48.571531 37.443591 C 48.176536 38.292099 47.635247 39.018694 46.947663 39.613625 C 46.26008 40.208555 45.465213 40.662068 44.567941 40.969286 C 43.670669 41.281381 42.724632 41.437428 41.734707 41.437428 C 40.739905 41.437428 39.803621 41.276504 38.916102 40.94978 C 38.033459 40.627932 37.243469 40.169543 36.555886 39.574613 C 35.873179 38.979682 35.331889 38.253087 34.941771 37.399703 C 34.551653 36.551196 34.356593 35.600282 34.356593 34.556716 L 34.356593 20.024807 C 34.356593 18.956858 34.551653 17.996192 34.941771 17.142808 C 35.331889 16.289424 35.873179 15.567705 36.555886 14.972775 C 37.243469 14.377844 38.033459 13.924331 38.916102 13.612237 C 39.803621 13.300142 40.739905 13.148971 41.734707 13.148971 C 42.724632 13.148971 43.670669 13.300142 44.567941 13.612237 C 45.465213 13.924331 46.26008 14.377844 46.947663 14.972775 C 47.635247 15.567705 48.176536 16.284547 48.571531 17.133055 C 48.966526 17.976686 49.166461 18.942229 49.166461 20.024807 Z M 41.773719 17.903539 C 41.095888 17.903539 40.574105 18.147363 40.193739 18.639887 C 39.81825 19.127535 39.632944 19.68833 39.632944 20.322272 L 39.632944 34.278756 C 39.632944 34.902946 39.813374 35.453988 40.174233 35.936759 C 40.539969 36.419531 41.056876 36.658478 41.734707 36.658478 C 42.417414 36.658478 42.953827 36.439037 43.329315 35.995277 C 43.704804 35.551517 43.894987 35.019981 43.894987 34.400668 L 43.894987 20.322272 C 43.894987 19.68833 43.704804 19.127535 43.329315 18.639887 C 42.953827 18.147363 42.432043 17.903539 41.773719 17.903539 Z M 60.699335 33.961785 L 60.699335 31.543051 C 60.699335 30.69942 60.475017 30.075231 60.016628 29.670483 C 59.563115 29.265735 59.036455 29.0658 58.441525 29.0658 L 56.48118 29.0658 L 56.48118 36.224471 L 58.539054 36.224471 C 59.016949 36.224471 59.411944 36.107436 59.728915 35.873365 C 60.045887 35.64417 60.289711 35.356458 60.455511 35.015105 C 60.621311 34.668875 60.699335 34.317768 60.699335 33.961785 Z M 60.523782 22.682488 L 60.523782 20.74165 C 60.523782 19.922401 60.309216 19.322594 59.889839 18.947105 C 59.465586 18.56674 58.929173 18.381434 58.280601 18.381434 L 56.48118 18.381434 L 56.48118 24.803757 L 58.222083 24.803757 C 58.514672 24.803757 58.83652 24.745239 59.192503 24.623327 C 59.553362 24.506292 59.86058 24.296603 60.128787 23.989385 C 60.392117 23.687043 60.523782 23.253036 60.523782 22.682488 Z M 65.536802 20.444184 L 65.536802 22.404529 C 65.536802 23.145754 65.385631 23.823585 65.073537 24.447774 C 64.761442 25.067087 64.381077 25.583994 63.932441 25.993618 C 63.483804 26.403242 63.044921 26.651943 62.625544 26.744596 C 62.903503 26.827496 63.230228 26.983543 63.605716 27.222491 C 63.981205 27.461438 64.356694 27.788162 64.727307 28.212416 C 65.097919 28.63667 65.400261 29.163329 65.639208 29.787519 C 65.873279 30.416585 65.995191 31.162686 65.995191 32.020946 L 65.995191 34.478692 C 65.995191 35.444235 65.805009 36.326878 65.42952 37.12662 C 65.054031 37.926363 64.542001 38.60907 63.903182 39.184494 C 63.264363 39.759919 62.532891 40.208555 61.723395 40.525526 C 60.909023 40.842497 60.060516 40.998545 59.172997 40.998545 L 52.258149 40.998545 C 51.804636 40.998545 51.580318 40.749844 51.580318 40.247567 L 51.580318 14.338832 C 51.580318 13.821925 51.804636 13.563472 52.258149 13.563472 L 58.55856 13.563472 C 59.948357 13.563472 61.1626 13.865814 62.206167 14.465621 C 63.25461 15.065428 64.068982 15.884676 64.65416 16.913613 C 65.244214 17.94255 65.536802 19.122658 65.536802 20.444184 Z M 76.977023 33.961785 L 76.977023 31.543051 C 76.977023 30.69942 76.747828 30.075231 76.289439 29.670483 C 75.835927 29.265735 75.309267 29.0658 74.714336 29.0658 L 72.753992 29.0658 L 72.753992 36.224471 L 74.811866 36.224471 C 75.289761 36.224471 75.684756 36.107436 76.001727 35.873365 C 76.318698 35.64417 76.562522 35.356458 76.728322 35.015105 C 76.894123 34.668875 76.977023 34.317768 76.977023 33.961785 Z M 76.796593 22.682488 L 76.796593 20.74165 C 76.796593 19.922401 76.586904 19.322594 76.162651 18.947105 C 75.738397 18.56674 75.201984 18.381434 74.558289 18.381434 L 72.753992 18.381434 L 72.753992 24.803757 L 74.494895 24.803757 C 74.787484 24.803757 75.109331 24.745239 75.470191 24.623327 C 75.826174 24.506292 76.133392 24.296603 76.401598 23.989385 C 76.664928 23.687043 76.796593 23.253036 76.796593 22.682488 Z M 81.809614 20.444184 L 81.809614 22.404529 C 81.809614 23.145754 81.658443 23.823585 81.346348 24.447774 C 81.034254 25.067087 80.653888 25.583994 80.205252 25.993618 C 79.756616 26.403242 79.322609 26.651943 78.898356 26.744596 C 79.176315 26.827496 79.503039 26.983543 79.878528 27.222491 C 80.254017 27.461438 80.629506 27.788162 81.000118 28.212416 C 81.370731 28.63667 81.673072 29.163329 81.91202 29.787519 C 82.150967 30.416585 82.268003 31.162686 82.268003 32.020946 L 82.268003 34.478692 C 82.268003 35.444235 82.07782 36.326878 81.702331 37.12662 C 81.326842 37.926363 80.819688 38.60907 80.175993 39.184494 C 79.537174 39.759919 78.810579 40.208555 77.996207 40.525526 C 77.181835 40.842497 76.333328 40.998545 75.445808 40.998545 L 68.530961 40.998545 C 68.082324 40.998545 67.85313 40.749844 67.85313 40.247567 L 67.85313 14.338832 C 67.85313 13.821925 68.082324 13.563472 68.530961 13.563472 L 74.831372 13.563472 C 76.221168 13.563472 77.435412 13.865814 78.478978 14.465621 C 79.527421 15.065428 80.341794 15.884676 80.931848 16.913613 C 81.517025 17.94255 81.809614 19.122658 81.809614 20.444184 Z M 89.402292 36.224471 L 96.756023 36.224471 C 96.916947 36.224471 97.048612 36.278113 97.160771 36.390272 C 97.277806 36.502431 97.331448 36.673108 97.331448 36.897426 L 97.331448 40.306085 C 97.331448 40.545032 97.277806 40.720585 97.160771 40.832744 C 97.048612 40.944903 96.916947 40.998545 96.756023 40.998545 L 84.803772 40.998545 C 84.355136 40.998545 84.130818 40.749844 84.130818 40.247567 L 84.130818 14.338832 C 84.130818 13.821925 84.355136 13.563472 84.803772 13.563472 L 96.658493 13.563472 C 97.029106 13.563472 97.214412 13.807296 97.214412 14.294944 L 97.214412 17.664591 C 97.214412 18.142486 97.029106 18.381434 96.658493 18.381434 L 89.402292 18.381434 L 89.402292 24.745239 L 95.190673 24.745239 C 95.36135 24.745239 95.512521 24.79888 95.634433 24.901286 C 95.761221 25.008569 95.824615 25.188999 95.824615 25.437699 L 95.824615 28.826852 C 95.824615 29.0658 95.766098 29.236477 95.644186 29.343759 C 95.52715 29.451042 95.375979 29.499806 95.190673 29.499806 L 89.402292 29.499806 Z M 108.747286 24.008891 L 108.747286 20.722144 C 108.747286 20.005301 108.537597 19.43963 108.123096 19.015376 C 107.708596 18.591122 107.157553 18.381434 106.46997 18.381434 L 104.485243 18.381434 L 104.485243 26.252071 L 106.328552 26.252071 C 107.123418 26.252071 107.723225 26.047259 108.132849 25.637635 C 108.542473 25.228011 108.747286 24.686721 108.747286 24.008891 Z M 113.150746 40.979039 L 109.50314 40.979039 C 109.278822 40.979039 109.069133 40.905892 108.878951 40.749844 C 108.683891 40.598673 108.591238 40.379232 108.591238 40.086643 L 108.591238 35.946512 C 108.591238 34.030056 108.245008 32.635383 107.557425 31.772246 C 106.869841 30.904233 105.84578 30.426338 104.485243 30.333684 L 104.485243 40.267073 C 104.485243 40.754721 104.265801 40.998545 103.831794 40.998545 L 99.867217 40.998545 C 99.428334 40.998545 99.213769 40.754721 99.213769 40.267073 L 99.213769 14.338832 C 99.213769 13.821925 99.438087 13.563472 99.886723 13.563472 L 106.884471 13.563472 C 107.903655 13.563472 108.844815 13.748778 109.717705 14.119391 C 110.590595 14.490003 111.351326 15.002033 111.999897 15.665235 C 112.648469 16.323559 113.150746 17.08429 113.506729 17.94255 C 113.862712 18.805687 114.043142 19.727342 114.043142 20.722144 L 114.043142 23.555378 C 114.043142 24.73061 113.770059 25.730288 113.22877 26.559289 C 112.687481 27.383414 112.014527 28.066122 111.205031 28.612287 C 112.10718 29.363265 112.770381 30.382449 113.209264 31.674716 C 113.643271 32.962107 113.862712 34.595727 113.862712 36.580454 L 113.862712 40.145161 C 113.862712 40.320714 113.809071 40.501144 113.701789 40.691327 C 113.599383 40.886386 113.414076 40.979039 113.150746 40.979039 Z M 113.150746 40.979039 " stroke="#292929" stroke-width="0.329938" stroke-opacity="1" stroke-miterlimit="4"/><g fill="#ef8f10" fill-opacity="1"><g transform="translate(57.650456, 35.010263)"><g><path d="M 3.09375 -6.203125 L 5.578125 -6.203125 C 6.066406 -6.203125 6.441406 -6.300781 6.703125 -6.5 C 6.960938 -6.695312 7.09375 -6.976562 7.09375 -7.34375 C 7.09375 -7.707031 6.972656 -7.976562 6.734375 -8.15625 C 6.492188 -8.34375 6.09375 -8.4375 5.53125 -8.4375 L 3.09375 -8.4375 Z M 3.09375 -1.765625 L 5.6875 -1.765625 C 6.21875 -1.765625 6.625 -1.878906 6.90625 -2.109375 C 7.1875 -2.347656 7.328125 -2.726562 7.328125 -3.25 C 7.328125 -3.632812 7.191406 -3.9375 6.921875 -4.15625 C 6.648438 -4.375 6.273438 -4.484375 5.796875 -4.484375 L 3.09375 -4.484375 Z M 1.046875 -10.1875 L 5.984375 -10.1875 C 7.015625 -10.1875 7.796875 -9.941406 8.328125 -9.453125 C 8.867188 -8.960938 9.140625 -8.34375 9.140625 -7.59375 C 9.140625 -6.550781 8.722656 -5.851562 7.890625 -5.5 C 8.929688 -5.09375 9.453125 -4.269531 9.453125 -3.03125 C 9.453125 -2.613281 9.375 -2.222656 9.21875 -1.859375 C 9.070312 -1.492188 8.832031 -1.15625 8.5 -0.84375 C 8.175781 -0.53125 7.785156 -0.3125 7.328125 -0.1875 C 6.878906 -0.0625 6.222656 0 5.359375 0 L 1.046875 0 Z M 1.046875 -10.1875 "/></g></g></g><g fill="#ef8f10" fill-opacity="1"><g transform="translate(69.616668, 35.010263)"><g><path d="M 5.59375 0 L 3.46875 0 L 3.46875 -3.84375 L -0.0625 -10.1875 L 2.453125 -10.1875 L 4.5625 -5.765625 L 6.59375 -10.1875 L 9 -10.1875 L 5.59375 -3.828125 Z M 5.59375 0 "/></g></g></g><g fill="#ef8f10" fill-opacity="1"><g transform="translate(80.632286, 35.010263)"><g/></g></g><g fill="#ef8f10" fill-opacity="1"><g transform="translate(86.395355, 35.010263)"><g><path d="M 3.171875 0 L 1.046875 0 L 1.046875 -10.1875 L 3.171875 -10.1875 L 3.171875 -6.046875 L 7.0625 -10.1875 L 9.8125 -10.1875 L 5.65625 -6.015625 L 10.0625 0 L 7.3125 0 L 4.171875 -4.46875 L 3.171875 -3.453125 Z M 3.171875 0 "/></g></g></g><path stroke-linecap="butt" transform="matrix(0.721343, 0, 0, 0.721343, 15.516311, 19.357244)" fill="none" stroke-linejoin="miter" d="M 62.344795 13.259481 L 65.859291 13.259481 C 66.547027 13.259481 67.066891 13.118685 67.435128 12.842507 C 67.79795 12.560914 67.982068 12.165601 67.982068 11.656568 C 67.982068 11.15295 67.814195 10.768467 67.47845 10.508535 C 67.142705 10.243188 66.579519 10.113222 65.783478 10.113222 L 62.344795 10.113222 Z M 62.344795 19.519507 L 66.016333 19.519507 C 66.752807 19.519507 67.321408 19.351635 67.722136 19.021305 C 68.122864 18.690975 68.323229 18.154865 68.323229 17.418391 C 68.323229 16.887697 68.12828 16.465308 67.743797 16.151223 C 67.359315 15.837139 66.834036 15.680097 66.162545 15.680097 L 62.344795 15.680097 Z M 59.463883 7.643869 L 66.438722 7.643869 C 67.873763 7.643869 68.973058 7.990445 69.731193 8.683597 C 70.483912 9.376749 70.86298 10.254019 70.86298 11.315407 C 70.86298 12.782939 70.272718 13.763099 69.103024 14.255887 C 70.581387 14.824488 71.317861 15.983351 71.317861 17.743306 C 71.317861 18.317322 71.209556 18.858847 70.992946 19.373296 C 70.776336 19.887744 70.435175 20.364286 69.974879 20.802921 C 69.519998 21.241556 68.967643 21.550225 68.334059 21.728928 C 67.69506 21.913047 66.763637 21.999691 65.539791 21.999691 L 59.463883 21.999691 Z M 82.722372 21.999691 L 79.722325 21.999691 L 79.722325 16.579028 L 74.761958 7.643869 L 78.298115 7.643869 L 81.276501 13.882235 L 84.119506 7.643869 L 87.514866 7.643869 L 82.722372 16.616935 Z M 102.921246 21.999691 L 99.921199 21.999691 L 99.921199 7.643869 L 102.921246 7.643869 L 102.921246 13.486922 L 108.406892 7.643869 L 112.284209 7.643869 L 106.424911 13.524828 L 112.62537 21.999691 L 108.758883 21.999691 L 104.323795 15.701758 L 102.921246 17.136798 Z M 102.921246 21.999691 " stroke="#292929" stroke-width="0.375" stroke-opacity="1" stroke-miterlimit="4"/></svg>