<svg xmlns="http://www.w3.org/2000/svg" xmlns:xlink="http://www.w3.org/1999/xlink" width="200" zoomAndPan="magnify" viewBox="0 0 150 149.999998" height="200" preserveAspectRatio="xMidYMid meet" version="1.0"><defs><g/><clipPath id="432eefc9f9"><path d="M 27 36 L 120 36 L 120 112 L 27 112 Z M 27 36 " clip-rule="nonzero"/></clipPath><clipPath id="e1856cfc7a"><path d="M 13.359375 47.945312 L 105.085938 24.351562 L 122.113281 90.554688 L 30.386719 114.148438 Z M 13.359375 47.945312 " clip-rule="nonzero"/></clipPath><clipPath id="2b29cd7a2a"><path d="M 13.359375 47.945312 L 105.085938 24.351562 L 122.113281 90.554688 L 30.386719 114.148438 Z M 13.359375 47.945312 " clip-rule="nonzero"/></clipPath><clipPath id="acd253773d"><path d="M 27 36 L 120 36 L 120 112 L 27 112 Z M 27 36 " clip-rule="nonzero"/></clipPath><clipPath id="1c2ac47a40"><path d="M 13.359375 47.945312 L 105.085938 24.351562 L 122.113281 90.554688 L 30.386719 114.148438 Z M 13.359375 47.945312 " clip-rule="nonzero"/></clipPath><clipPath id="ab07731417"><path d="M 13.359375 47.945312 L 105.085938 24.351562 L 122.113281 90.554688 L 30.386719 114.148438 Z M 13.359375 47.945312 " clip-rule="nonzero"/></clipPath></defs><g fill="#d47c08" fill-opacity="1"><g transform="translate(7.47979, 113.161276)"><g><path d="M 11.171875 -15.140625 L 11.171875 -13.75 C 11.171875 -13.53125 11.140625 -13.367188 11.078125 -13.265625 C 11.023438 -13.160156 10.90625 -13.109375 10.71875 -13.109375 L 8.046875 -13.109375 C 7.867188 -13.109375 7.75 -13.15625 7.6875 -13.25 C 7.625 -13.34375 7.59375 -13.488281 7.59375 -13.6875 L 7.59375 -15.03125 C 7.59375 -15.3125 7.535156 -15.582031 7.421875 -15.84375 C 7.304688 -16.113281 7.140625 -16.332031 6.921875 -16.5 C 6.703125 -16.664062 6.429688 -16.75 6.109375 -16.75 C 5.640625 -16.75 5.257812 -16.578125 4.96875 -16.234375 C 4.6875 -15.898438 4.546875 -15.507812 4.546875 -15.0625 L 4.546875 -4.890625 C 4.546875 -4.585938 4.609375 -4.300781 4.734375 -4.03125 C 4.859375 -3.769531 5.035156 -3.554688 5.265625 -3.390625 C 5.503906 -3.234375 5.785156 -3.15625 6.109375 -3.15625 C 6.640625 -3.15625 7.03125 -3.332031 7.28125 -3.6875 C 7.539062 -4.039062 7.671875 -4.441406 7.671875 -4.890625 L 7.671875 -6.59375 C 7.671875 -6.820312 7.703125 -6.972656 7.765625 -7.046875 C 7.828125 -7.117188 7.9375 -7.15625 8.09375 -7.15625 L 10.78125 -7.15625 C 10.945312 -7.15625 11.066406 -7.117188 11.140625 -7.046875 C 11.222656 -6.984375 11.265625 -6.84375 11.265625 -6.625 L 11.265625 -4.671875 C 11.265625 -3.640625 11.03125 -2.75 10.5625 -2 C 10.09375 -1.25 9.46875 -0.675781 8.6875 -0.28125 C 7.90625 0.113281 7.035156 0.3125 6.078125 0.3125 C 5.359375 0.3125 4.675781 0.203125 4.03125 -0.015625 C 3.382812 -0.242188 2.8125 -0.570312 2.3125 -1 C 1.8125 -1.4375 1.421875 -1.960938 1.140625 -2.578125 C 0.859375 -3.203125 0.71875 -3.898438 0.71875 -4.671875 L 0.71875 -15.21875 C 0.71875 -15.925781 0.847656 -16.582031 1.109375 -17.1875 C 1.378906 -17.800781 1.753906 -18.332031 2.234375 -18.78125 C 2.710938 -19.226562 3.273438 -19.578125 3.921875 -19.828125 C 4.578125 -20.078125 5.296875 -20.203125 6.078125 -20.203125 C 6.953125 -20.203125 7.707031 -20.054688 8.34375 -19.765625 C 8.988281 -19.484375 9.519531 -19.101562 9.9375 -18.625 C 10.363281 -18.144531 10.675781 -17.601562 10.875 -17 C 11.070312 -16.394531 11.171875 -15.773438 11.171875 -15.140625 Z M 11.171875 -15.140625 "/></g></g><g transform="translate(19.287963, 113.161276)"><g><path d="M 9.71875 0 L 1.53125 0 C 1.195312 0 1.03125 -0.179688 1.03125 -0.546875 L 1.03125 -19.34375 C 1.03125 -19.71875 1.191406 -19.90625 1.515625 -19.90625 L 4.390625 -19.90625 C 4.703125 -19.90625 4.859375 -19.71875 4.859375 -19.34375 L 4.859375 -3.46875 L 9.71875 -3.46875 C 9.988281 -3.46875 10.125 -3.304688 10.125 -2.984375 L 10.125 -0.515625 C 10.125 -0.171875 9.988281 0 9.71875 0 Z M 9.71875 0 "/></g></g><g transform="translate(29.729783, 113.161276)"><g><path d="M 11.46875 -15.21875 L 11.46875 -4.671875 C 11.46875 -3.898438 11.320312 -3.203125 11.03125 -2.578125 C 10.738281 -1.960938 10.34375 -1.4375 9.84375 -1 C 9.351562 -0.570312 8.78125 -0.242188 8.125 -0.015625 C 7.46875 0.203125 6.78125 0.3125 6.0625 0.3125 C 5.34375 0.3125 4.660156 0.195312 4.015625 -0.03125 C 3.378906 -0.269531 2.8125 -0.601562 2.3125 -1.03125 C 1.8125 -1.46875 1.421875 -1.992188 1.140625 -2.609375 C 0.859375 -3.222656 0.71875 -3.910156 0.71875 -4.671875 L 0.71875 -15.21875 C 0.71875 -15.988281 0.859375 -16.679688 1.140625 -17.296875 C 1.421875 -17.921875 1.8125 -18.445312 2.3125 -18.875 C 2.8125 -19.3125 3.378906 -19.640625 4.015625 -19.859375 C 4.660156 -20.085938 5.34375 -20.203125 6.0625 -20.203125 C 6.78125 -20.203125 7.46875 -20.085938 8.125 -19.859375 C 8.78125 -19.640625 9.351562 -19.3125 9.84375 -18.875 C 10.34375 -18.445312 10.738281 -17.925781 11.03125 -17.3125 C 11.320312 -16.695312 11.46875 -16 11.46875 -15.21875 Z M 6.09375 -16.75 C 5.601562 -16.75 5.222656 -16.570312 4.953125 -16.21875 C 4.679688 -15.863281 4.546875 -15.457031 4.546875 -15 L 4.546875 -4.875 C 4.546875 -4.425781 4.675781 -4.023438 4.9375 -3.671875 C 5.195312 -3.328125 5.570312 -3.15625 6.0625 -3.15625 C 6.5625 -3.15625 6.945312 -3.3125 7.21875 -3.625 C 7.5 -3.945312 7.640625 -4.332031 7.640625 -4.78125 L 7.640625 -15 C 7.640625 -15.457031 7.5 -15.863281 7.21875 -16.21875 C 6.945312 -16.570312 6.570312 -16.75 6.09375 -16.75 Z M 6.09375 -16.75 "/></g></g><g transform="translate(41.911905, 113.161276)"><g><path d="M 7.65625 -5.109375 L 7.65625 -6.859375 C 7.65625 -7.472656 7.488281 -7.925781 7.15625 -8.21875 C 6.820312 -8.507812 6.441406 -8.65625 6.015625 -8.65625 L 4.59375 -8.65625 L 4.59375 -3.46875 L 6.078125 -3.46875 C 6.421875 -3.46875 6.707031 -3.550781 6.9375 -3.71875 C 7.175781 -3.882812 7.351562 -4.09375 7.46875 -4.34375 C 7.59375 -4.59375 7.65625 -4.847656 7.65625 -5.109375 Z M 7.515625 -13.28125 L 7.515625 -14.703125 C 7.515625 -15.296875 7.359375 -15.726562 7.046875 -16 C 6.742188 -16.269531 6.359375 -16.40625 5.890625 -16.40625 L 4.59375 -16.40625 L 4.59375 -11.75 L 5.859375 -11.75 C 6.066406 -11.75 6.300781 -11.789062 6.5625 -11.875 C 6.820312 -11.96875 7.046875 -12.125 7.234375 -12.34375 C 7.421875 -12.5625 7.515625 -12.875 7.515625 -13.28125 Z M 11.15625 -14.90625 L 11.15625 -13.484375 C 11.15625 -12.953125 11.039062 -12.457031 10.8125 -12 C 10.59375 -11.550781 10.316406 -11.175781 9.984375 -10.875 C 9.660156 -10.582031 9.347656 -10.40625 9.046875 -10.34375 C 9.242188 -10.28125 9.476562 -10.160156 9.75 -9.984375 C 10.03125 -9.816406 10.300781 -9.578125 10.5625 -9.265625 C 10.832031 -8.960938 11.050781 -8.582031 11.21875 -8.125 C 11.394531 -7.675781 11.484375 -7.140625 11.484375 -6.515625 L 11.484375 -4.734375 C 11.484375 -4.035156 11.347656 -3.394531 11.078125 -2.8125 C 10.804688 -2.226562 10.4375 -1.726562 9.96875 -1.3125 C 9.507812 -0.894531 8.984375 -0.570312 8.390625 -0.34375 C 7.796875 -0.113281 7.179688 0 6.546875 0 L 1.53125 0 C 1.195312 0 1.03125 -0.179688 1.03125 -0.546875 L 1.03125 -19.34375 C 1.03125 -19.71875 1.195312 -19.90625 1.53125 -19.90625 L 6.09375 -19.90625 C 7.101562 -19.90625 7.984375 -19.6875 8.734375 -19.25 C 9.492188 -18.8125 10.085938 -18.21875 10.515625 -17.46875 C 10.941406 -16.726562 11.15625 -15.875 11.15625 -14.90625 Z M 11.15625 -14.90625 "/></g></g><g transform="translate(53.720079, 113.161276)"><g><path d="M 7.65625 -5.109375 L 7.65625 -6.859375 C 7.65625 -7.472656 7.488281 -7.925781 7.15625 -8.21875 C 6.820312 -8.507812 6.441406 -8.65625 6.015625 -8.65625 L 4.59375 -8.65625 L 4.59375 -3.46875 L 6.078125 -3.46875 C 6.421875 -3.46875 6.707031 -3.550781 6.9375 -3.71875 C 7.175781 -3.882812 7.351562 -4.09375 7.46875 -4.34375 C 7.59375 -4.59375 7.65625 -4.847656 7.65625 -5.109375 Z M 7.515625 -13.28125 L 7.515625 -14.703125 C 7.515625 -15.296875 7.359375 -15.726562 7.046875 -16 C 6.742188 -16.269531 6.359375 -16.40625 5.890625 -16.40625 L 4.59375 -16.40625 L 4.59375 -11.75 L 5.859375 -11.75 C 6.066406 -11.75 6.300781 -11.789062 6.5625 -11.875 C 6.820312 -11.96875 7.046875 -12.125 7.234375 -12.34375 C 7.421875 -12.5625 7.515625 -12.875 7.515625 -13.28125 Z M 11.15625 -14.90625 L 11.15625 -13.484375 C 11.15625 -12.953125 11.039062 -12.457031 10.8125 -12 C 10.59375 -11.550781 10.316406 -11.175781 9.984375 -10.875 C 9.660156 -10.582031 9.347656 -10.40625 9.046875 -10.34375 C 9.242188 -10.28125 9.476562 -10.160156 9.75 -9.984375 C 10.03125 -9.816406 10.300781 -9.578125 10.5625 -9.265625 C 10.832031 -8.960938 11.050781 -8.582031 11.21875 -8.125 C 11.394531 -7.675781 11.484375 -7.140625 11.484375 -6.515625 L 11.484375 -4.734375 C 11.484375 -4.035156 11.347656 -3.394531 11.078125 -2.8125 C 10.804688 -2.226562 10.4375 -1.726562 9.96875 -1.3125 C 9.507812 -0.894531 8.984375 -0.570312 8.390625 -0.34375 C 7.796875 -0.113281 7.179688 0 6.546875 0 L 1.53125 0 C 1.195312 0 1.03125 -0.179688 1.03125 -0.546875 L 1.03125 -19.34375 C 1.03125 -19.71875 1.195312 -19.90625 1.53125 -19.90625 L 6.09375 -19.90625 C 7.101562 -19.90625 7.984375 -19.6875 8.734375 -19.25 C 9.492188 -18.8125 10.085938 -18.21875 10.515625 -17.46875 C 10.941406 -16.726562 11.15625 -15.875 11.15625 -14.90625 Z M 11.15625 -14.90625 "/></g></g><g transform="translate(65.528252, 113.161276)"><g><path d="M 4.859375 -3.46875 L 10.203125 -3.46875 C 10.316406 -3.46875 10.410156 -3.425781 10.484375 -3.34375 C 10.566406 -3.257812 10.609375 -3.140625 10.609375 -2.984375 L 10.609375 -0.5 C 10.609375 -0.332031 10.566406 -0.207031 10.484375 -0.125 C 10.410156 -0.0390625 10.316406 0 10.203125 0 L 1.53125 0 C 1.195312 0 1.03125 -0.179688 1.03125 -0.546875 L 1.03125 -19.34375 C 1.03125 -19.71875 1.195312 -19.90625 1.53125 -19.90625 L 10.125 -19.90625 C 10.394531 -19.90625 10.53125 -19.726562 10.53125 -19.375 L 10.53125 -16.921875 C 10.53125 -16.578125 10.394531 -16.40625 10.125 -16.40625 L 4.859375 -16.40625 L 4.859375 -11.796875 L 9.0625 -11.796875 C 9.1875 -11.796875 9.289062 -11.753906 9.375 -11.671875 C 9.46875 -11.597656 9.515625 -11.472656 9.515625 -11.296875 L 9.515625 -8.828125 C 9.515625 -8.660156 9.472656 -8.535156 9.390625 -8.453125 C 9.304688 -8.378906 9.195312 -8.34375 9.0625 -8.34375 L 4.859375 -8.34375 Z M 4.859375 -3.46875 "/></g></g><g transform="translate(76.473465, 113.161276)"><g><path d="M 7.953125 -12.328125 L 7.953125 -14.71875 C 7.953125 -15.226562 7.800781 -15.632812 7.5 -15.9375 C 7.195312 -16.25 6.796875 -16.40625 6.296875 -16.40625 L 4.859375 -16.40625 L 4.859375 -10.703125 L 6.203125 -10.703125 C 6.773438 -10.703125 7.207031 -10.847656 7.5 -11.140625 C 7.800781 -11.441406 7.953125 -11.835938 7.953125 -12.328125 Z M 11.140625 -0.015625 L 8.5 -0.015625 C 8.332031 -0.015625 8.179688 -0.0664062 8.046875 -0.171875 C 7.910156 -0.285156 7.84375 -0.445312 7.84375 -0.65625 L 7.84375 -3.671875 C 7.84375 -5.054688 7.59375 -6.0625 7.09375 -6.6875 C 6.59375 -7.320312 5.847656 -7.671875 4.859375 -7.734375 L 4.859375 -0.53125 C 4.859375 -0.175781 4.703125 0 4.390625 0 L 1.515625 0 C 1.191406 0 1.03125 -0.175781 1.03125 -0.53125 L 1.03125 -19.34375 C 1.03125 -19.71875 1.195312 -19.90625 1.53125 -19.90625 L 6.59375 -19.90625 C 7.332031 -19.90625 8.019531 -19.769531 8.65625 -19.5 C 9.289062 -19.226562 9.84375 -18.851562 10.3125 -18.375 C 10.78125 -17.894531 11.144531 -17.34375 11.40625 -16.71875 C 11.664062 -16.101562 11.796875 -15.4375 11.796875 -14.71875 L 11.796875 -12.65625 C 11.796875 -11.800781 11.597656 -11.070312 11.203125 -10.46875 C 10.804688 -9.875 10.316406 -9.378906 9.734375 -8.984375 C 10.390625 -8.441406 10.875 -7.703125 11.1875 -6.765625 C 11.5 -5.828125 11.65625 -4.640625 11.65625 -3.203125 L 11.65625 -0.625 C 11.65625 -0.5 11.617188 -0.363281 11.546875 -0.21875 C 11.472656 -0.0820312 11.335938 -0.015625 11.140625 -0.015625 Z M 11.140625 -0.015625 "/></g></g></g><g fill="#313131" fill-opacity="1"><g transform="translate(91.18074, 113.161276)"><g><path d="M 11.171875 -15.140625 L 11.171875 -13.75 C 11.171875 -13.53125 11.140625 -13.367188 11.078125 -13.265625 C 11.023438 -13.160156 10.90625 -13.109375 10.71875 -13.109375 L 8.046875 -13.109375 C 7.867188 -13.109375 7.75 -13.15625 7.6875 -13.25 C 7.625 -13.34375 7.59375 -13.488281 7.59375 -13.6875 L 7.59375 -15.03125 C 7.59375 -15.3125 7.535156 -15.582031 7.421875 -15.84375 C 7.304688 -16.113281 7.140625 -16.332031 6.921875 -16.5 C 6.703125 -16.664062 6.429688 -16.75 6.109375 -16.75 C 5.640625 -16.75 5.257812 -16.578125 4.96875 -16.234375 C 4.6875 -15.898438 4.546875 -15.507812 4.546875 -15.0625 L 4.546875 -4.890625 C 4.546875 -4.585938 4.609375 -4.300781 4.734375 -4.03125 C 4.859375 -3.769531 5.035156 -3.554688 5.265625 -3.390625 C 5.503906 -3.234375 5.785156 -3.15625 6.109375 -3.15625 C 6.640625 -3.15625 7.03125 -3.332031 7.28125 -3.6875 C 7.539062 -4.039062 7.671875 -4.441406 7.671875 -4.890625 L 7.671875 -6.59375 C 7.671875 -6.820312 7.703125 -6.972656 7.765625 -7.046875 C 7.828125 -7.117188 7.9375 -7.15625 8.09375 -7.15625 L 10.78125 -7.15625 C 10.945312 -7.15625 11.066406 -7.117188 11.140625 -7.046875 C 11.222656 -6.984375 11.265625 -6.84375 11.265625 -6.625 L 11.265625 -4.671875 C 11.265625 -3.640625 11.03125 -2.75 10.5625 -2 C 10.09375 -1.25 9.46875 -0.675781 8.6875 -0.28125 C 7.90625 0.113281 7.035156 0.3125 6.078125 0.3125 C 5.359375 0.3125 4.675781 0.203125 4.03125 -0.015625 C 3.382812 -0.242188 2.8125 -0.570312 2.3125 -1 C 1.8125 -1.4375 1.421875 -1.960938 1.140625 -2.578125 C 0.859375 -3.203125 0.71875 -3.898438 0.71875 -4.671875 L 0.71875 -15.21875 C 0.71875 -15.925781 0.847656 -16.582031 1.109375 -17.1875 C 1.378906 -17.800781 1.753906 -18.332031 2.234375 -18.78125 C 2.710938 -19.226562 3.273438 -19.578125 3.921875 -19.828125 C 4.578125 -20.078125 5.296875 -20.203125 6.078125 -20.203125 C 6.953125 -20.203125 7.707031 -20.054688 8.34375 -19.765625 C 8.988281 -19.484375 9.519531 -19.101562 9.9375 -18.625 C 10.363281 -18.144531 10.675781 -17.601562 10.875 -17 C 11.070312 -16.394531 11.171875 -15.773438 11.171875 -15.140625 Z M 11.171875 -15.140625 "/></g></g><g transform="translate(102.988913, 113.161276)"><g><path d="M 11.46875 -15.21875 L 11.46875 -4.671875 C 11.46875 -3.898438 11.320312 -3.203125 11.03125 -2.578125 C 10.738281 -1.960938 10.34375 -1.4375 9.84375 -1 C 9.351562 -0.570312 8.78125 -0.242188 8.125 -0.015625 C 7.46875 0.203125 6.78125 0.3125 6.0625 0.3125 C 5.34375 0.3125 4.660156 0.195312 4.015625 -0.03125 C 3.378906 -0.269531 2.8125 -0.601562 2.3125 -1.03125 C 1.8125 -1.46875 1.421875 -1.992188 1.140625 -2.609375 C 0.859375 -3.222656 0.71875 -3.910156 0.71875 -4.671875 L 0.71875 -15.21875 C 0.71875 -15.988281 0.859375 -16.679688 1.140625 -17.296875 C 1.421875 -17.921875 1.8125 -18.445312 2.3125 -18.875 C 2.8125 -19.3125 3.378906 -19.640625 4.015625 -19.859375 C 4.660156 -20.085938 5.34375 -20.203125 6.0625 -20.203125 C 6.78125 -20.203125 7.46875 -20.085938 8.125 -19.859375 C 8.78125 -19.640625 9.351562 -19.3125 9.84375 -18.875 C 10.34375 -18.445312 10.738281 -17.925781 11.03125 -17.3125 C 11.320312 -16.695312 11.46875 -16 11.46875 -15.21875 Z M 6.09375 -16.75 C 5.601562 -16.75 5.222656 -16.570312 4.953125 -16.21875 C 4.679688 -15.863281 4.546875 -15.457031 4.546875 -15 L 4.546875 -4.875 C 4.546875 -4.425781 4.675781 -4.023438 4.9375 -3.671875 C 5.195312 -3.328125 5.570312 -3.15625 6.0625 -3.15625 C 6.5625 -3.15625 6.945312 -3.3125 7.21875 -3.625 C 7.5 -3.945312 7.640625 -4.332031 7.640625 -4.78125 L 7.640625 -15 C 7.640625 -15.457031 7.5 -15.863281 7.21875 -16.21875 C 6.945312 -16.570312 6.570312 -16.75 6.09375 -16.75 Z M 6.09375 -16.75 "/></g></g><g transform="translate(115.171036, 113.161276)"><g><path d="M 7.953125 -12.328125 L 7.953125 -14.71875 C 7.953125 -15.226562 7.800781 -15.632812 7.5 -15.9375 C 7.195312 -16.25 6.796875 -16.40625 6.296875 -16.40625 L 4.859375 -16.40625 L 4.859375 -10.703125 L 6.203125 -10.703125 C 6.773438 -10.703125 7.207031 -10.847656 7.5 -11.140625 C 7.800781 -11.441406 7.953125 -11.835938 7.953125 -12.328125 Z M 11.140625 -0.015625 L 8.5 -0.015625 C 8.332031 -0.015625 8.179688 -0.0664062 8.046875 -0.171875 C 7.910156 -0.285156 7.84375 -0.445312 7.84375 -0.65625 L 7.84375 -3.671875 C 7.84375 -5.054688 7.59375 -6.0625 7.09375 -6.6875 C 6.59375 -7.320312 5.847656 -7.671875 4.859375 -7.734375 L 4.859375 -0.53125 C 4.859375 -0.175781 4.703125 0 4.390625 0 L 1.515625 0 C 1.191406 0 1.03125 -0.175781 1.03125 -0.53125 L 1.03125 -19.34375 C 1.03125 -19.71875 1.195312 -19.90625 1.53125 -19.90625 L 6.59375 -19.90625 C 7.332031 -19.90625 8.019531 -19.769531 8.65625 -19.5 C 9.289062 -19.226562 9.84375 -18.851562 10.3125 -18.375 C 10.78125 -17.894531 11.144531 -17.34375 11.40625 -16.71875 C 11.664062 -16.101562 11.796875 -15.4375 11.796875 -14.71875 L 11.796875 -12.65625 C 11.796875 -11.800781 11.597656 -11.070312 11.203125 -10.46875 C 10.804688 -9.875 10.316406 -9.378906 9.734375 -8.984375 C 10.390625 -8.441406 10.875 -7.703125 11.1875 -6.765625 C 11.5 -5.828125 11.65625 -4.640625 11.65625 -3.203125 L 11.65625 -0.625 C 11.65625 -0.5 11.617188 -0.363281 11.546875 -0.21875 C 11.472656 -0.0820312 11.335938 -0.015625 11.140625 -0.015625 Z M 11.140625 -0.015625 "/></g></g><g transform="translate(127.74149, 113.161276)"><g><path d="M 4.859375 -3.46875 L 10.203125 -3.46875 C 10.316406 -3.46875 10.410156 -3.425781 10.484375 -3.34375 C 10.566406 -3.257812 10.609375 -3.140625 10.609375 -2.984375 L 10.609375 -0.5 C 10.609375 -0.332031 10.566406 -0.207031 10.484375 -0.125 C 10.410156 -0.0390625 10.316406 0 10.203125 0 L 1.53125 0 C 1.195312 0 1.03125 -0.179688 1.03125 -0.546875 L 1.03125 -19.34375 C 1.03125 -19.71875 1.195312 -19.90625 1.53125 -19.90625 L 10.125 -19.90625 C 10.394531 -19.90625 10.53125 -19.726562 10.53125 -19.375 L 10.53125 -16.921875 C 10.53125 -16.578125 10.394531 -16.40625 10.125 -16.40625 L 4.859375 -16.40625 L 4.859375 -11.796875 L 9.0625 -11.796875 C 9.1875 -11.796875 9.289062 -11.753906 9.375 -11.671875 C 9.46875 -11.597656 9.515625 -11.472656 9.515625 -11.296875 L 9.515625 -8.828125 C 9.515625 -8.660156 9.472656 -8.535156 9.390625 -8.453125 C 9.304688 -8.378906 9.195312 -8.34375 9.0625 -8.34375 L 4.859375 -8.34375 Z M 4.859375 -3.46875 "/></g></g></g><g clip-path="url(#432eefc9f9)"><g clip-path="url(#e1856cfc7a)"><g clip-path="url(#2b29cd7a2a)"><path fill="#292929" d="M 118.441406 77.664062 C 117.238281 74.070312 113.835938 71.371094 110.074219 70.980469 C 96.867188 69.476562 83.675781 67.871094 70.46875 66.425781 C 70.019531 64.710938 69.027344 62.554688 70.53125 61.070312 C 72.148438 59.71875 73.699219 58.214844 74.652344 56.300781 C 76.996094 51.976562 76.683594 46.375 73.839844 42.355469 C 70.441406 37.226562 63.3125 35.101562 57.65625 37.542969 C 51.378906 39.96875 47.65625 47.632812 49.972656 54.007812 C 51 56.179688 54.363281 56.425781 55.683594 54.414062 C 57.046875 52.71875 55.597656 50.613281 56.105469 48.722656 C 56.667969 45.308594 60.09375 42.644531 63.558594 43.128906 C 66.882812 43.429688 69.589844 46.511719 69.566406 49.832031 C 69.613281 52.011719 68.492188 54.125 66.730469 55.394531 C 64.417969 57.167969 62.996094 60.027344 62.964844 62.9375 C 62.894531 64.703125 63.546875 66.371094 63.882812 68.078125 C 53.015625 75.664062 42.277344 83.441406 31.460938 91.101562 C 28.300781 93.261719 26.589844 97.335938 27.308594 101.101562 C 27.800781 103.355469 28.277344 105.726562 29.738281 107.582031 C 32.097656 110.769531 36.449219 112.3125 40.28125 111.269531 L 70.019531 103.621094 L 68.34375 97.105469 C 58.414062 99.660156 48.492188 102.210938 38.5625 104.757812 C 36.863281 105.230469 34.941406 104.070312 34.546875 102.351562 C 34.222656 101.042969 33.585938 99.632812 34.105469 98.289062 C 34.464844 97.179688 35.511719 96.558594 36.40625 95.921875 C 46.839844 88.519531 57.246094 81.066406 67.6875 73.671875 C 68.378906 73.15625 69.261719 73.019531 70.109375 73.132812 C 83.125 74.648438 96.136719 76.148438 109.152344 77.65625 C 110.5625 77.746094 111.847656 78.78125 112.175781 80.167969 C 112.496094 81.472656 113.128906 82.875 112.617188 84.21875 C 112.210938 85.398438 111.101562 86.207031 109.898438 86.421875 C 100.121094 88.929688 90.34375 91.441406 80.574219 93.957031 L 82.25 100.472656 L 111.976562 92.828125 C 115.84375 91.890625 118.914062 88.445312 119.441406 84.507812 C 119.824219 82.175781 119.105469 79.871094 118.441406 77.664062 Z M 118.441406 77.664062 " fill-opacity="1" fill-rule="nonzero"/></g></g></g><g fill="#ef8f10" fill-opacity="1"><g transform="translate(58.531628, 123.391741)"><g><path d="M 0.640625 -5.625 L 3.09375 -5.625 C 3.582031 -5.625 3.96875 -5.488281 4.25 -5.21875 C 4.539062 -4.957031 4.6875 -4.617188 4.6875 -4.203125 C 4.6875 -3.953125 4.625 -3.722656 4.5 -3.515625 C 4.375 -3.304688 4.1875 -3.144531 3.9375 -3.03125 C 4.28125 -2.894531 4.535156 -2.71875 4.703125 -2.5 C 4.867188 -2.28125 4.953125 -2 4.953125 -1.65625 C 4.953125 -1.175781 4.773438 -0.78125 4.421875 -0.46875 C 4.078125 -0.15625 3.617188 0 3.046875 0 L 0.640625 0 Z M 1.390625 -0.65625 L 3 -0.65625 C 3.394531 -0.65625 3.691406 -0.742188 3.890625 -0.921875 C 4.097656 -1.109375 4.203125 -1.359375 4.203125 -1.671875 C 4.203125 -1.992188 4.085938 -2.234375 3.859375 -2.390625 C 3.640625 -2.546875 3.3125 -2.625 2.875 -2.625 L 1.390625 -2.625 Z M 1.390625 -3.234375 L 2.765625 -3.234375 C 3.171875 -3.234375 3.460938 -3.304688 3.640625 -3.453125 C 3.828125 -3.609375 3.921875 -3.835938 3.921875 -4.140625 C 3.921875 -4.410156 3.832031 -4.613281 3.65625 -4.75 C 3.476562 -4.894531 3.179688 -4.96875 2.765625 -4.96875 L 1.390625 -4.96875 Z M 1.390625 -3.234375 "/></g></g></g><g fill="#ef8f10" fill-opacity="1"><g transform="translate(66.62872, 123.391741)"><g><path d="M 2.921875 0 L 2.15625 0 L 2.15625 -2.265625 L 0.03125 -5.625 L 0.921875 -5.625 L 2.53125 -2.921875 L 4.140625 -5.625 L 5.046875 -5.625 L 2.921875 -2.265625 Z M 2.921875 0 "/></g></g></g><g fill="#ef8f10" fill-opacity="1"><g transform="translate(74.53867, 123.391741)"><g/></g></g><g fill="#ef8f10" fill-opacity="1"><g transform="translate(79.290041, 123.391741)"><g><path d="M 1.390625 0 L 0.640625 0 L 0.640625 -5.625 L 1.390625 -5.625 L 1.390625 -2.890625 L 4.109375 -5.625 L 5.15625 -5.625 L 2.8125 -3.359375 L 5.21875 0 L 4.25 0 L 2.28125 -2.8125 L 1.390625 -1.96875 Z M 1.390625 0 "/></g></g></g><g clip-path="url(#acd253773d)"><g clip-path="url(#1c2ac47a40)"><g clip-path="url(#ab07731417)"><path fill="#313131" d="M 118.441406 77.664062 C 117.238281 74.070312 113.835938 71.371094 110.074219 70.980469 C 96.867188 69.476562 83.675781 67.871094 70.46875 66.425781 C 70.019531 64.710938 69.027344 62.554688 70.53125 61.070312 C 72.148438 59.71875 73.699219 58.214844 74.652344 56.300781 C 76.996094 51.976562 76.683594 46.375 73.839844 42.355469 C 70.441406 37.226562 63.3125 35.101562 57.65625 37.542969 C 51.378906 39.96875 47.65625 47.632812 49.972656 54.007812 C 51 56.179688 54.363281 56.425781 55.683594 54.414062 C 57.046875 52.71875 55.597656 50.613281 56.105469 48.722656 C 56.667969 45.308594 60.09375 42.644531 63.558594 43.128906 C 66.882812 43.429688 69.589844 46.511719 69.566406 49.832031 C 69.613281 52.011719 68.492188 54.125 66.730469 55.394531 C 64.417969 57.167969 62.996094 60.027344 62.964844 62.9375 C 62.894531 64.703125 63.546875 66.371094 63.882812 68.078125 C 53.015625 75.664062 42.277344 83.441406 31.460938 91.101562 C 28.300781 93.261719 26.589844 97.335938 27.308594 101.101562 C 27.800781 103.355469 28.277344 105.726562 29.738281 107.582031 C 32.097656 110.769531 36.449219 112.3125 40.28125 111.269531 L 70.019531 103.621094 L 68.34375 97.105469 C 58.414062 99.660156 48.492188 102.210938 38.5625 104.757812 C 36.863281 105.230469 34.941406 104.070312 34.546875 102.351562 C 34.222656 101.042969 33.585938 99.632812 34.105469 98.289062 C 34.464844 97.179688 35.511719 96.558594 36.40625 95.921875 C 46.839844 88.519531 57.246094 81.066406 67.6875 73.671875 C 68.378906 73.15625 69.261719 73.019531 70.109375 73.132812 C 83.125 74.648438 96.136719 76.148438 109.152344 77.65625 C 110.5625 77.746094 111.847656 78.78125 112.175781 80.167969 C 112.496094 81.472656 113.128906 82.875 112.617188 84.21875 C 112.210938 85.398438 111.101562 86.207031 109.898438 86.421875 C 100.121094 88.929688 90.34375 91.441406 80.574219 93.957031 L 82.25 100.472656 L 111.976562 92.828125 C 115.84375 91.890625 118.914062 88.445312 119.441406 84.507812 C 119.824219 82.175781 119.105469 79.871094 118.441406 77.664062 Z M 118.441406 77.664062 " fill-opacity="1" fill-rule="nonzero"/></g></g></g><g fill="#d47c08" fill-opacity="1"><g transform="translate(29.985726, 113.161276)"><g><path d="M 11.46875 -15.21875 L 11.46875 -4.671875 C 11.46875 -3.898438 11.320312 -3.203125 11.03125 -2.578125 C 10.738281 -1.960938 10.34375 -1.4375 9.84375 -1 C 9.351562 -0.570312 8.78125 -0.242188 8.125 -0.015625 C 7.46875 0.203125 6.78125 0.3125 6.0625 0.3125 C 5.34375 0.3125 4.660156 0.195312 4.015625 -0.03125 C 3.378906 -0.269531 2.8125 -0.601562 2.3125 -1.03125 C 1.8125 -1.46875 1.421875 -1.992188 1.140625 -2.609375 C 0.859375 -3.222656 0.71875 -3.910156 0.71875 -4.671875 L 0.71875 -15.21875 C 0.71875 -15.988281 0.859375 -16.679688 1.140625 -17.296875 C 1.421875 -17.921875 1.8125 -18.445312 2.3125 -18.875 C 2.8125 -19.3125 3.378906 -19.640625 4.015625 -19.859375 C 4.660156 -20.085938 5.34375 -20.203125 6.0625 -20.203125 C 6.78125 -20.203125 7.46875 -20.085938 8.125 -19.859375 C 8.78125 -19.640625 9.351562 -19.3125 9.84375 -18.875 C 10.34375 -18.445312 10.738281 -17.925781 11.03125 -17.3125 C 11.320312 -16.695312 11.46875 -16 11.46875 -15.21875 Z M 6.09375 -16.75 C 5.601562 -16.75 5.222656 -16.570312 4.953125 -16.21875 C 4.679688 -15.863281 4.546875 -15.457031 4.546875 -15 L 4.546875 -4.875 C 4.546875 -4.425781 4.675781 -4.023438 4.9375 -3.671875 C 5.195312 -3.328125 5.570312 -3.15625 6.0625 -3.15625 C 6.5625 -3.15625 6.945312 -3.3125 7.21875 -3.625 C 7.5 -3.945312 7.640625 -4.332031 7.640625 -4.78125 L 7.640625 -15 C 7.640625 -15.457031 7.5 -15.863281 7.21875 -16.21875 C 6.945312 -16.570312 6.570312 -16.75 6.09375 -16.75 Z M 6.09375 -16.75 "/></g></g><g transform="translate(42.167849, 113.161276)"><g><path d="M 7.65625 -5.109375 L 7.65625 -6.859375 C 7.65625 -7.472656 7.488281 -7.925781 7.15625 -8.21875 C 6.820312 -8.507812 6.441406 -8.65625 6.015625 -8.65625 L 4.59375 -8.65625 L 4.59375 -3.46875 L 6.078125 -3.46875 C 6.421875 -3.46875 6.707031 -3.550781 6.9375 -3.71875 C 7.175781 -3.882812 7.351562 -4.09375 7.46875 -4.34375 C 7.59375 -4.59375 7.65625 -4.847656 7.65625 -5.109375 Z M 7.515625 -13.28125 L 7.515625 -14.703125 C 7.515625 -15.296875 7.359375 -15.726562 7.046875 -16 C 6.742188 -16.269531 6.359375 -16.40625 5.890625 -16.40625 L 4.59375 -16.40625 L 4.59375 -11.75 L 5.859375 -11.75 C 6.066406 -11.75 6.300781 -11.789062 6.5625 -11.875 C 6.820312 -11.96875 7.046875 -12.125 7.234375 -12.34375 C 7.421875 -12.5625 7.515625 -12.875 7.515625 -13.28125 Z M 11.15625 -14.90625 L 11.15625 -13.484375 C 11.15625 -12.953125 11.039062 -12.457031 10.8125 -12 C 10.59375 -11.550781 10.316406 -11.175781 9.984375 -10.875 C 9.660156 -10.582031 9.347656 -10.40625 9.046875 -10.34375 C 9.242188 -10.28125 9.476562 -10.160156 9.75 -9.984375 C 10.03125 -9.816406 10.300781 -9.578125 10.5625 -9.265625 C 10.832031 -8.960938 11.050781 -8.582031 11.21875 -8.125 C 11.394531 -7.675781 11.484375 -7.140625 11.484375 -6.515625 L 11.484375 -4.734375 C 11.484375 -4.035156 11.347656 -3.394531 11.078125 -2.8125 C 10.804688 -2.226562 10.4375 -1.726562 9.96875 -1.3125 C 9.507812 -0.894531 8.984375 -0.570312 8.390625 -0.34375 C 7.796875 -0.113281 7.179688 0 6.546875 0 L 1.53125 0 C 1.195312 0 1.03125 -0.179688 1.03125 -0.546875 L 1.03125 -19.34375 C 1.03125 -19.71875 1.195312 -19.90625 1.53125 -19.90625 L 6.09375 -19.90625 C 7.101562 -19.90625 7.984375 -19.6875 8.734375 -19.25 C 9.492188 -18.8125 10.085938 -18.21875 10.515625 -17.46875 C 10.941406 -16.726562 11.15625 -15.875 11.15625 -14.90625 Z M 11.15625 -14.90625 "/></g></g><g transform="translate(53.976022, 113.161276)"><g><path d="M 7.65625 -5.109375 L 7.65625 -6.859375 C 7.65625 -7.472656 7.488281 -7.925781 7.15625 -8.21875 C 6.820312 -8.507812 6.441406 -8.65625 6.015625 -8.65625 L 4.59375 -8.65625 L 4.59375 -3.46875 L 6.078125 -3.46875 C 6.421875 -3.46875 6.707031 -3.550781 6.9375 -3.71875 C 7.175781 -3.882812 7.351562 -4.09375 7.46875 -4.34375 C 7.59375 -4.59375 7.65625 -4.847656 7.65625 -5.109375 Z M 7.515625 -13.28125 L 7.515625 -14.703125 C 7.515625 -15.296875 7.359375 -15.726562 7.046875 -16 C 6.742188 -16.269531 6.359375 -16.40625 5.890625 -16.40625 L 4.59375 -16.40625 L 4.59375 -11.75 L 5.859375 -11.75 C 6.066406 -11.75 6.300781 -11.789062 6.5625 -11.875 C 6.820312 -11.96875 7.046875 -12.125 7.234375 -12.34375 C 7.421875 -12.5625 7.515625 -12.875 7.515625 -13.28125 Z M 11.15625 -14.90625 L 11.15625 -13.484375 C 11.15625 -12.953125 11.039062 -12.457031 10.8125 -12 C 10.59375 -11.550781 10.316406 -11.175781 9.984375 -10.875 C 9.660156 -10.582031 9.347656 -10.40625 9.046875 -10.34375 C 9.242188 -10.28125 9.476562 -10.160156 9.75 -9.984375 C 10.03125 -9.816406 10.300781 -9.578125 10.5625 -9.265625 C 10.832031 -8.960938 11.050781 -8.582031 11.21875 -8.125 C 11.394531 -7.675781 11.484375 -7.140625 11.484375 -6.515625 L 11.484375 -4.734375 C 11.484375 -4.035156 11.347656 -3.394531 11.078125 -2.8125 C 10.804688 -2.226562 10.4375 -1.726562 9.96875 -1.3125 C 9.507812 -0.894531 8.984375 -0.570312 8.390625 -0.34375 C 7.796875 -0.113281 7.179688 0 6.546875 0 L 1.53125 0 C 1.195312 0 1.03125 -0.179688 1.03125 -0.546875 L 1.03125 -19.34375 C 1.03125 -19.71875 1.195312 -19.90625 1.53125 -19.90625 L 6.09375 -19.90625 C 7.101562 -19.90625 7.984375 -19.6875 8.734375 -19.25 C 9.492188 -18.8125 10.085938 -18.21875 10.515625 -17.46875 C 10.941406 -16.726562 11.15625 -15.875 11.15625 -14.90625 Z M 11.15625 -14.90625 "/></g></g><g transform="translate(65.784195, 113.161276)"><g><path d="M 4.859375 -3.46875 L 10.203125 -3.46875 C 10.316406 -3.46875 10.410156 -3.425781 10.484375 -3.34375 C 10.566406 -3.257812 10.609375 -3.140625 10.609375 -2.984375 L 10.609375 -0.5 C 10.609375 -0.332031 10.566406 -0.207031 10.484375 -0.125 C 10.410156 -0.0390625 10.316406 0 10.203125 0 L 1.53125 0 C 1.195312 0 1.03125 -0.179688 1.03125 -0.546875 L 1.03125 -19.34375 C 1.03125 -19.71875 1.195312 -19.90625 1.53125 -19.90625 L 10.125 -19.90625 C 10.394531 -19.90625 10.53125 -19.726562 10.53125 -19.375 L 10.53125 -16.921875 C 10.53125 -16.578125 10.394531 -16.40625 10.125 -16.40625 L 4.859375 -16.40625 L 4.859375 -11.796875 L 9.0625 -11.796875 C 9.1875 -11.796875 9.289062 -11.753906 9.375 -11.671875 C 9.46875 -11.597656 9.515625 -11.472656 9.515625 -11.296875 L 9.515625 -8.828125 C 9.515625 -8.660156 9.472656 -8.535156 9.390625 -8.453125 C 9.304688 -8.378906 9.195312 -8.34375 9.0625 -8.34375 L 4.859375 -8.34375 Z M 4.859375 -3.46875 "/></g></g></g><path stroke-linecap="butt" transform="matrix(0.490929, 0, 0, 0.490929, 84.11476, 82.723708)" fill="none" stroke-linejoin="miter" d="M 37.15553 31.148968 L 37.15553 33.989567 C 37.15553 34.443109 37.091875 34.76934 36.980479 34.976218 C 36.861126 35.17514 36.606507 35.278579 36.21662 35.278579 L 30.766171 35.278579 C 30.416069 35.278579 30.177363 35.191053 30.050053 35.000089 C 29.922743 34.817081 29.859088 34.522677 29.859088 34.10892 L 29.859088 31.387674 C 29.859088 30.798866 29.739736 30.233929 29.508987 29.700819 C 29.270281 29.159753 28.928136 28.722125 28.482551 28.37998 C 28.036967 28.037835 27.487944 27.870741 26.843438 27.870741 C 25.888615 27.870741 25.116799 28.212886 24.527992 28.91309 C 23.939184 29.605337 23.64478 30.40898 23.64478 31.324019 L 23.64478 52.035728 C 23.64478 52.648407 23.77209 53.221301 24.026709 53.770324 C 24.281329 54.311391 24.647344 54.756975 25.124756 55.083206 C 25.610125 55.417394 26.175062 55.584488 26.843438 55.584488 C 27.917614 55.584488 28.7133 55.22643 29.230496 54.502355 C 29.747692 53.778281 30.002312 52.958724 30.002312 52.035728 L 30.002312 48.550623 C 30.002312 48.105039 30.065967 47.802678 30.193277 47.643541 C 30.320586 47.484404 30.551335 47.412792 30.885524 47.412792 L 36.359844 47.412792 C 36.694032 47.412792 36.940695 47.476447 37.091875 47.611714 C 37.251012 47.754937 37.330581 48.041384 37.330581 48.494925 L 37.330581 52.481313 C 37.330581 54.589881 36.853169 56.404045 35.906303 57.923806 C 34.959436 59.451523 33.694295 60.621181 32.102923 61.424824 C 30.511551 62.236424 28.737171 62.642224 26.779783 62.642224 C 25.315721 62.642224 23.92327 62.411475 22.610388 61.957934 C 21.289549 61.496436 20.11989 60.82806 19.109369 59.952805 C 18.090891 59.069594 17.295205 58.003374 16.722311 56.738233 C 16.14146 55.481049 15.855013 54.056771 15.855013 52.481313 L 15.855013 31.005745 C 15.855013 29.557596 16.125546 28.212886 16.658656 26.971616 C 17.199722 25.738302 17.955624 24.656169 18.934318 23.74113 C 19.905055 22.818134 21.0588 22.109974 22.387596 21.600735 C 23.716392 21.091496 25.180454 20.836876 26.779783 20.836876 C 28.56212 20.836876 30.105751 21.13128 31.410676 21.720088 C 32.723558 22.300938 33.797735 23.080711 34.649119 24.059405 C 35.500503 25.038099 36.129095 26.144102 36.542852 27.369459 C 36.948652 28.602772 37.15553 29.859957 37.15553 31.148968 Z M 61.789972 31.005745 L 61.789972 52.481313 C 61.789972 54.056771 61.503525 55.481049 60.914717 56.738233 C 60.32591 58.003374 59.530223 59.069594 58.511745 59.952805 C 57.493267 60.82806 56.323608 61.496436 54.994813 61.957934 C 53.666017 62.411475 52.273566 62.642224 50.809504 62.642224 C 49.345441 62.642224 47.952991 62.403518 46.648065 61.926107 C 45.335183 61.448695 44.173482 60.772362 43.16296 59.88915 C 42.144482 59.013896 41.348796 57.939719 40.775902 56.682535 C 40.195051 55.425351 39.908604 54.024944 39.908604 52.481313 L 39.908604 31.005745 C 39.908604 29.422329 40.195051 27.998051 40.775902 26.740867 C 41.348796 25.483683 42.144482 24.409507 43.16296 23.534252 C 44.173482 22.65104 45.335183 21.982664 46.648065 21.529123 C 47.952991 21.067625 49.345441 20.836876 50.809504 20.836876 C 52.273566 20.836876 53.666017 21.067625 54.994813 21.529123 C 56.323608 21.982664 57.493267 22.65104 58.511745 23.534252 C 59.530223 24.409507 60.32591 25.475726 60.914717 26.724953 C 61.503525 27.97418 61.789972 29.398459 61.789972 31.005745 Z M 50.865202 27.870741 C 49.870594 27.870741 49.090822 28.2288 48.533841 28.952874 C 47.976861 29.676949 47.698371 30.504462 47.698371 31.443372 L 47.698371 52.067556 C 47.698371 52.982595 47.968904 53.802152 48.509971 54.518269 C 49.043081 55.22643 49.806939 55.584488 50.809504 55.584488 C 51.820025 55.584488 52.607754 55.258257 53.164735 54.605795 C 53.721715 53.945375 54.000205 53.165603 54.000205 52.242607 L 54.000205 31.443372 C 54.000205 30.504462 53.721715 29.676949 53.164735 28.952874 C 52.607754 28.2288 51.843896 27.870741 50.865202 27.870741 Z M 79.46216 36.893822 L 79.46216 32.03218 C 79.46216 30.973917 79.151843 30.138447 78.539165 29.509855 C 77.918529 28.881263 77.10693 28.570945 76.088451 28.570945 L 73.160326 28.570945 L 73.160326 40.203876 L 75.881573 40.203876 C 77.059188 40.203876 77.9424 39.901515 78.547121 39.296794 C 79.1598 38.692072 79.46216 37.888429 79.46216 36.893822 Z M 85.962916 61.973848 L 80.576121 61.973848 C 80.241933 61.973848 79.931615 61.854495 79.653125 61.631703 C 79.366678 61.408911 79.223455 61.082679 79.223455 60.653009 L 79.223455 54.526226 C 79.223455 51.693583 78.714216 49.640713 77.703694 48.359659 C 76.685216 47.086561 75.173412 46.3784 73.160326 46.235177 L 73.160326 60.915585 C 73.160326 61.63966 72.834095 61.997718 72.189589 61.997718 L 66.33334 61.997718 C 65.688834 61.997718 65.370559 61.63966 65.370559 60.915585 L 65.370559 22.595342 C 65.370559 21.831484 65.696791 21.449554 66.365167 21.449554 L 76.70113 21.449554 C 78.212933 21.449554 79.605384 21.728044 80.894395 22.277068 C 82.183407 22.818134 83.305324 23.581993 84.260148 24.560687 C 85.222928 25.531424 85.962916 26.661298 86.488069 27.926439 C 87.021178 29.199537 87.283755 30.568117 87.283755 32.03218 L 87.283755 36.217489 C 87.283755 37.960041 86.877955 39.440017 86.082269 40.657417 C 85.278626 41.874817 84.284018 42.885338 83.090489 43.688981 C 84.419285 44.802942 85.405936 46.314745 86.050441 48.216435 C 86.694947 50.118125 87.021178 52.537011 87.021178 55.465136 L 87.021178 60.740534 C 87.021178 60.995154 86.94161 61.265687 86.782473 61.544177 C 86.623335 61.830624 86.352802 61.973848 85.962916 61.973848 Z M 98.765505 54.939983 L 109.634578 54.939983 C 109.865327 54.939983 110.072205 55.019551 110.239299 55.186645 C 110.398436 55.353739 110.485962 55.600402 110.485962 55.93459 L 110.485962 60.971283 C 110.485962 61.329342 110.398436 61.583962 110.239299 61.751056 C 110.072205 61.91815 109.865327 61.997718 109.634578 61.997718 L 91.970346 61.997718 C 91.30197 61.997718 90.975738 61.631703 90.975738 60.883758 L 90.975738 22.595342 C 90.975738 21.831484 91.30197 21.449554 91.970346 21.449554 L 109.491354 21.449554 C 110.032421 21.449554 110.310911 21.81557 110.310911 22.539644 L 110.310911 27.520639 C 110.310911 28.220843 110.032421 28.570945 109.491354 28.570945 L 98.765505 28.570945 L 98.765505 37.975955 L 107.319131 37.975955 C 107.573751 37.975955 107.796543 38.055523 107.979551 38.214661 C 108.162558 38.365841 108.258041 38.628417 108.258041 39.00239 L 108.258041 44.015212 C 108.258041 44.365314 108.170515 44.619934 107.995464 44.771114 C 107.820413 44.930251 107.597621 45.00982 107.319131 45.00982 L 98.765505 45.00982 Z M 98.765505 54.939983 " stroke="#ffffff" stroke-width="0.4875" stroke-opacity="1" stroke-miterlimit="4"/><path stroke-linecap="butt" transform="matrix(0.490929, 0, 0, 0.490929, 4.238324, 82.723708)" fill="none" stroke-linejoin="miter" d="M 29.686962 31.148968 L 29.686962 33.989567 C 29.686962 34.443109 29.623307 34.76934 29.511911 34.976218 C 29.392558 35.17514 29.137939 35.278579 28.748053 35.278579 L 23.297603 35.278579 C 22.947501 35.278579 22.708795 35.191053 22.581485 35.000089 C 22.454175 34.817081 22.390521 34.522677 22.390521 34.10892 L 22.390521 31.387674 C 22.390521 30.798866 22.271168 30.233929 22.040419 29.700819 C 21.801713 29.159753 21.459568 28.722125 21.013984 28.37998 C 20.568399 28.037835 20.019376 27.870741 19.37487 27.870741 C 18.41209 27.870741 17.648231 28.212886 17.059424 28.91309 C 16.470616 29.605337 16.176212 30.40898 16.176212 31.324019 L 16.176212 52.035728 C 16.176212 52.648407 16.303522 53.221301 16.558141 53.770324 C 16.812761 54.311391 17.178777 54.756975 17.656188 55.083206 C 18.141557 55.417394 18.706494 55.584488 19.37487 55.584488 C 20.449046 55.584488 21.244733 55.22643 21.761929 54.502355 C 22.279125 53.778281 22.533744 52.958724 22.533744 52.035728 L 22.533744 48.550623 C 22.533744 48.105039 22.597399 47.802678 22.724709 47.643541 C 22.852019 47.484404 23.082767 47.412792 23.416956 47.412792 L 28.891276 47.412792 C 29.225464 47.412792 29.472127 47.476447 29.623307 47.611714 C 29.782445 47.754937 29.862013 48.041384 29.862013 48.494925 L 29.862013 52.481313 C 29.862013 54.589881 29.384601 56.404045 28.437735 57.923806 C 27.490869 59.451523 26.225728 60.621181 24.634355 61.424824 C 23.042983 62.236424 21.268603 62.642224 19.311215 62.642224 C 17.847153 62.642224 16.454702 62.411475 15.14182 61.957934 C 13.820981 61.496436 12.651323 60.82806 11.640801 59.952805 C 10.622323 59.069594 9.826637 58.003374 9.253743 56.738233 C 8.672892 55.481049 8.386445 54.056771 8.386445 52.481313 L 8.386445 31.005745 C 8.386445 29.557596 8.656978 28.212886 9.190088 26.971616 C 9.731155 25.738302 10.487056 24.656169 11.46575 23.74113 C 12.436487 22.818134 13.590232 22.109974 14.919028 21.600735 C 16.247824 21.091496 17.711886 20.836876 19.311215 20.836876 C 21.093552 20.836876 22.637183 21.13128 23.942108 21.720088 C 25.254991 22.300938 26.329167 23.080711 27.180551 24.059405 C 28.031935 25.038099 28.660527 26.144102 29.074284 27.369459 C 29.480084 28.602772 29.686962 29.859957 29.686962 31.148968 Z M 50.780601 61.997718 L 34.07915 61.997718 C 33.41873 61.997718 33.084542 61.631703 33.084542 60.883758 L 33.084542 22.595342 C 33.084542 21.831484 33.402816 21.449554 34.047322 21.449554 L 39.911529 21.449554 C 40.556034 21.449554 40.874309 21.831484 40.874309 22.595342 L 40.874309 54.939983 L 50.780601 54.939983 C 51.329624 54.939983 51.600158 55.274171 51.600158 55.93459 L 51.600158 60.947413 C 51.600158 61.647617 51.329624 61.997718 50.780601 61.997718 Z M 75.590094 31.005745 L 75.590094 52.481313 C 75.590094 54.056771 75.303647 55.481049 74.714839 56.738233 C 74.126031 58.003374 73.330345 59.069594 72.311867 59.952805 C 71.293389 60.82806 70.12373 61.496436 68.794934 61.957934 C 67.466139 62.411475 66.073688 62.642224 64.609626 62.642224 C 63.145563 62.642224 61.753112 62.403518 60.448187 61.926107 C 59.135305 61.448695 57.973603 60.772362 56.963082 59.88915 C 55.944604 59.013896 55.148918 57.939719 54.576024 56.682535 C 53.995173 55.425351 53.708726 54.024944 53.708726 52.481313 L 53.708726 31.005745 C 53.708726 29.422329 53.995173 27.998051 54.576024 26.740867 C 55.148918 25.483683 55.944604 24.409507 56.963082 23.534252 C 57.973603 22.65104 59.135305 21.982664 60.448187 21.529123 C 61.753112 21.067625 63.145563 20.836876 64.609626 20.836876 C 66.073688 20.836876 67.466139 21.067625 68.794934 21.529123 C 70.12373 21.982664 71.293389 22.65104 72.311867 23.534252 C 73.330345 24.409507 74.126031 25.475726 74.714839 26.724953 C 75.303647 27.97418 75.590094 29.398459 75.590094 31.005745 Z M 64.665324 27.870741 C 63.670716 27.870741 62.890944 28.2288 62.333963 28.952874 C 61.776983 29.676949 61.498493 30.504462 61.498493 31.443372 L 61.498493 52.067556 C 61.498493 52.982595 61.769026 53.802152 62.310093 54.518269 C 62.843202 55.22643 63.615018 55.584488 64.609626 55.584488 C 65.620147 55.584488 66.407876 55.258257 66.964856 54.605795 C 67.521837 53.945375 67.800327 53.165603 67.800327 52.242607 L 67.800327 31.443372 C 67.800327 30.504462 67.521837 29.676949 66.964856 28.952874 C 66.407876 28.2288 65.644017 27.870741 64.665324 27.870741 Z M 92.641647 51.598101 L 92.641647 48.02547 C 92.641647 46.776243 92.307459 45.853247 91.631126 45.256483 C 90.962749 44.659718 90.182977 44.365314 89.307722 44.365314 L 86.403468 44.365314 L 86.403468 54.939983 L 89.450946 54.939983 C 90.15115 54.939983 90.739957 54.764932 91.209412 54.422787 C 91.678867 54.088599 92.036926 53.658928 92.275632 53.149689 C 92.522294 52.648407 92.641647 52.123254 92.641647 51.598101 Z M 92.379071 34.928477 L 92.379071 32.05605 C 92.379071 30.846607 92.068753 29.963396 91.440161 29.406415 C 90.819526 28.849435 90.02384 28.570945 89.069016 28.570945 L 86.403468 28.570945 L 86.403468 38.06348 L 88.981491 38.06348 C 89.411162 38.06348 89.888573 37.975955 90.421683 37.800904 C 90.946836 37.625853 91.400377 37.315535 91.79822 36.861994 C 92.188106 36.41641 92.379071 35.771904 92.379071 34.928477 Z M 99.794865 31.618423 L 99.794865 34.522677 C 99.794865 35.612767 99.564116 36.615332 99.102618 37.538327 C 98.649077 38.453366 98.08414 39.217225 97.423721 39.821947 C 96.755344 40.426668 96.110839 40.800641 95.490203 40.935907 C 95.896003 41.05526 96.381372 41.286009 96.938352 41.636111 C 97.495332 41.99417 98.044356 42.479538 98.593379 43.100173 C 99.142403 43.728765 99.587987 44.508538 99.938089 45.431534 C 100.288191 46.362486 100.463242 47.460533 100.463242 48.725674 L 100.463242 52.36196 C 100.463242 53.786238 100.184751 55.091163 99.635728 56.268778 C 99.078748 57.454351 98.322846 58.472829 97.375979 59.316256 C 96.429113 60.16764 95.354937 60.82806 94.153451 61.297515 C 92.951965 61.766969 91.694781 61.997718 90.389855 61.997718 L 80.165289 61.997718 C 79.496913 61.997718 79.170681 61.631703 79.170681 60.883758 L 79.170681 22.595342 C 79.170681 21.831484 79.496913 21.449554 80.165289 21.449554 L 89.482773 21.449554 C 91.527687 21.449554 93.325937 21.895139 94.869568 22.786307 C 96.413199 23.677475 97.622642 24.878961 98.48994 26.406679 C 99.357238 27.926439 99.794865 29.668992 99.794865 31.618423 Z M 116.695238 51.598101 L 116.695238 48.02547 C 116.695238 46.776243 116.36105 45.853247 115.684717 45.256483 C 115.01634 44.659718 114.236568 44.365314 113.361313 44.365314 L 110.457059 44.365314 L 110.457059 54.939983 L 113.504537 54.939983 C 114.204741 54.939983 114.793548 54.764932 115.263003 54.422787 C 115.732458 54.088599 116.090517 53.658928 116.329223 53.149689 C 116.575885 52.648407 116.695238 52.123254 116.695238 51.598101 Z M 116.432662 34.928477 L 116.432662 32.05605 C 116.432662 30.846607 116.122344 29.963396 115.493752 29.406415 C 114.873117 28.849435 114.077431 28.570945 113.122608 28.570945 L 110.457059 28.570945 L 110.457059 38.06348 L 113.035082 38.06348 C 113.464753 38.06348 113.942164 37.975955 114.467317 37.800904 C 115.000427 37.625853 115.453968 37.315535 115.843854 36.861994 C 116.241697 36.41641 116.432662 35.771904 116.432662 34.928477 Z M 123.848456 31.618423 L 123.848456 34.522677 C 123.848456 35.612767 123.617707 36.615332 123.156209 37.538327 C 122.694711 38.453366 122.137731 39.217225 121.469355 39.821947 C 120.808935 40.426668 120.16443 40.800641 119.535838 40.935907 C 119.949594 41.05526 120.434963 41.286009 120.991943 41.636111 C 121.548923 41.99417 122.097947 42.479538 122.64697 43.100173 C 123.188037 43.728765 123.641578 44.508538 123.99168 45.431534 C 124.341782 46.362486 124.516833 47.460533 124.516833 48.725674 L 124.516833 52.36196 C 124.516833 53.786238 124.238342 55.091163 123.681362 56.268778 C 123.124382 57.454351 122.376437 58.472829 121.429571 59.316256 C 120.482704 60.16764 119.408528 60.82806 118.207042 61.297515 C 117.005556 61.766969 115.748372 61.997718 114.443446 61.997718 L 104.21888 61.997718 C 103.550504 61.997718 103.224272 61.631703 103.224272 60.883758 L 103.224272 22.595342 C 103.224272 21.831484 103.550504 21.449554 104.21888 21.449554 L 113.536364 21.449554 C 115.581278 21.449554 117.379528 21.895139 118.923159 22.786307 C 120.46679 23.677475 121.676233 24.878961 122.543531 26.406679 C 123.410829 27.926439 123.848456 29.668992 123.848456 31.618423 Z M 135.06763 54.939983 L 145.936703 54.939983 C 146.167452 54.939983 146.366373 55.019551 146.533467 55.186645 C 146.700561 55.353739 146.788087 55.600402 146.788087 55.93459 L 146.788087 60.971283 C 146.788087 61.329342 146.700561 61.583962 146.533467 61.751056 C 146.366373 61.91815 146.167452 61.997718 145.936703 61.997718 L 128.272471 61.997718 C 127.604095 61.997718 127.269907 61.631703 127.269907 60.883758 L 127.269907 22.595342 C 127.269907 21.831484 127.604095 21.449554 128.272471 21.449554 L 145.785522 21.449554 C 146.334546 21.449554 146.613036 21.81557 146.613036 22.539644 L 146.613036 27.520639 C 146.613036 28.220843 146.334546 28.570945 145.785522 28.570945 L 135.06763 28.570945 L 135.06763 37.975955 L 143.621256 37.975955 C 143.875876 37.975955 144.098668 38.055523 144.281676 38.214661 C 144.464683 38.365841 144.560166 38.628417 144.560166 39.00239 L 144.560166 44.015212 C 144.560166 44.365314 144.47264 44.619934 144.297589 44.771114 C 144.122538 44.930251 143.891789 45.00982 143.621256 45.00982 L 135.06763 45.00982 Z M 163.656632 36.893822 L 163.656632 32.03218 C 163.656632 30.973917 163.354272 30.138447 162.733636 29.509855 C 162.120958 28.881263 161.309358 28.570945 160.29088 28.570945 L 157.362755 28.570945 L 157.362755 40.203876 L 160.084002 40.203876 C 161.261617 40.203876 162.144829 39.901515 162.74955 39.296794 C 163.354272 38.692072 163.656632 37.888429 163.656632 36.893822 Z M 170.165345 61.973848 L 164.770593 61.973848 C 164.444362 61.973848 164.134044 61.854495 163.847597 61.631703 C 163.569107 61.408911 163.425883 61.082679 163.425883 60.653009 L 163.425883 54.526226 C 163.425883 51.693583 162.916644 49.640713 161.906123 48.359659 C 160.887645 47.086561 159.375841 46.3784 157.362755 46.235177 L 157.362755 60.915585 C 157.362755 61.63966 157.036524 61.997718 156.392018 61.997718 L 150.535768 61.997718 C 149.891263 61.997718 149.565031 61.63966 149.565031 60.915585 L 149.565031 22.595342 C 149.565031 21.831484 149.899219 21.449554 150.567596 21.449554 L 160.903558 21.449554 C 162.407405 21.449554 163.807813 21.728044 165.096824 22.277068 C 166.385836 22.818134 167.507753 23.581993 168.462576 24.560687 C 169.425357 25.531424 170.165345 26.661298 170.690498 27.926439 C 171.21565 29.199537 171.486184 30.568117 171.486184 32.03218 L 171.486184 36.217489 C 171.486184 37.960041 171.080384 39.440017 170.284698 40.657417 C 169.481055 41.874817 168.486447 42.885338 167.292918 43.688981 C 168.621714 44.802942 169.608364 46.314745 170.25287 48.216435 C 170.897376 50.118125 171.21565 52.537011 171.21565 55.465136 L 171.21565 60.740534 C 171.21565 60.995154 171.144039 61.265687 170.984901 61.544177 C 170.825764 61.830624 170.555231 61.973848 170.165345 61.973848 Z M 170.165345 61.973848 " stroke="#ffffff" stroke-width="0.4875" stroke-opacity="1" stroke-miterlimit="4"/></svg>